<svg id="Layer_1" data-name="Layer 1" xmlns="http://www.w3.org/2000/svg" viewBox="0 0 1640.34 775.25"><defs><style>.cls-1{fill:#e8f2fa;}.cls-2,.cls-42{opacity:0.4;}.cls-3{fill:#bdd9ff;}.cls-4{fill:#d0e3f9;}.cls-5{fill:#93c2f7;}.cls-6{fill:#dfefff;}.cls-7{fill:#fff;}.cls-8{fill:#a1c7f0;}.cls-9{fill:#214d9a;}.cls-10{fill:#568cc5;}.cls-11{fill:#25468f;}.cls-12{fill:#fb7c1d;}.cls-13{fill:#ff9841;}.cls-14{fill:#eb6c00;}.cls-15{fill:#ffae73;}.cls-16{fill:#a9c2ff;}.cls-17{fill:#dae6ff;}.cls-18{fill:#91b4f8;}.cls-19{fill:#cedfff;}.cls-20{fill:#c1d6ff;}.cls-21{fill:#bad7fd;}.cls-22{fill:#dceaff;}.cls-23{fill:#b0d2f5;}.cls-24{fill:#e66a00;}.cls-25{fill:#ce5700;}.cls-26{fill:#ffbf91;}.cls-27{fill:#f9924f;}.cls-28{fill:#2a3967;}.cls-29{fill:#0e407e;}.cls-30{fill:#f07209;}.cls-31{opacity:0.5;}.cls-32{fill:#85afff;}.cls-33{fill:#ff9223;}.cls-34{fill:#1e3865;}.cls-35{fill:#132e52;}.cls-36{fill:#bcd3f9;}.cls-37{fill:#5c9cf4;}.cls-38{fill:#e6f2ff;}.cls-39,.cls-42{fill:#e65f00;}.cls-40{fill:#fa9332;}.cls-41{fill:#fc9f38;}.cls-43{fill:#83a7f2;}.cls-44{fill:#fddbba;}.cls-45{fill:#0b3563;}.cls-46{fill:#032c52;}.cls-47{fill:#f59d64;}.cls-48{fill:#6ca3ea;}.cls-49{fill:#ff912b;}.cls-50{fill:#d96400;}.cls-51{fill:#7a9cfa;}.cls-52{fill:#5584e8;}.cls-53{fill:#ffa05e;}.cls-54{fill:#2d3554;}</style></defs><title>background</title><path class="cls-1" d="M1824.24,853c-.22.69-.46,1.38-.69,2.08q-3,8.83-6.63,17.92-.5,1.27-1,2.54-4.41,10.83-9.75,22.06h0l-.12.27L292.69,899.95c.35-6.05-138.22-201.7,6.78-392.11S614,420,648.79,286c7.51-29,19.61-53.36,35.13-73.66q1.23-1.63,2.52-3.22,3.26-4.09,6.72-7.95,1-1.07,1.93-2.13a190.23,190.23,0,0,1,18.65-17.63c1.32-1.09,2.65-2.16,4-3.21h0c80.55-63,207.17-60.34,297.62-22.85,120.12,49.78,340-36.74,527.84,26.48q4.67,1.57,9.31,3.27h0q9.76,3.56,19.38,7.7a203,203,0,0,1,36.84,20.37q2.28,1.6,4.46,3.25h0c130.14,98.19,14.44,304.06,81.66,335.9,42.18,20,104.44,64.83,131.37,137.65.34.93.68,1.85,1,2.78s.73,2.08,1.08,3.12.63,1.88.93,2.83C1842.82,741.05,1844.46,792.29,1824.24,853Z" transform="translate(-206.88 -128.75)"/><g class="cls-2"><rect class="cls-3" x="952.43" y="268.91" width="117.04" height="96.5" transform="translate(1815.02 505.57) rotate(180)"/><rect class="cls-4" x="1010.95" y="268.91" width="117.04" height="96.5" transform="translate(1932.05 505.57) rotate(180)"/><polygon class="cls-5" points="745.62 212.19 764.16 212.19 762.53 206.97 764.16 203.24 745.62 203.24 745.62 212.19"/><polygon class="cls-6" points="804.07 170.02 822.61 170.02 820.98 164.81 822.61 161.08 804.07 161.08 804.07 170.02"/><polygon class="cls-5" points="804.07 161.08 785.52 161.08 787.16 166.29 785.52 170.02 804.07 170.02 804.07 161.08"/><polygon class="cls-6" points="921.11 213.22 902.56 213.22 904.2 218.44 902.56 222.17 921.11 222.17 921.11 213.22"/><rect class="cls-7" x="879.76" y="146.7" width="33.68" height="13.1"/><rect class="cls-3" x="745.74" y="268.91" width="117.04" height="96.5" transform="translate(1401.64 505.57) rotate(180)"/><rect class="cls-4" x="804.26" y="268.91" width="117.04" height="96.5" transform="translate(1518.68 505.57) rotate(180)"/><polygon class="cls-5" points="538.93 212.19 557.48 212.19 555.84 206.97 557.48 203.24 538.93 203.24 538.93 212.19"/><polygon class="cls-6" points="597.38 170.02 615.93 170.02 614.29 164.81 615.93 161.08 597.38 161.08 597.38 170.02"/><polygon class="cls-5" points="597.38 161.08 578.84 161.08 580.47 166.29 578.84 170.02 597.38 170.02 597.38 161.08"/><polygon class="cls-6" points="714.42 213.22 695.88 213.22 697.51 218.44 695.88 222.17 714.42 222.17 714.42 213.22"/><rect class="cls-7" x="673.08" y="146.7" width="33.68" height="13.1"/><rect class="cls-3" x="463.16" y="236.66" width="45.01" height="536.92"/><rect class="cls-3" x="956.69" y="236.66" width="37.42" height="536.92"/><rect class="cls-3" x="508.17" y="236.66" width="485.94" height="13.97"/><rect class="cls-3" x="508.17" y="491.15" width="485.94" height="13.97"/><rect class="cls-3" x="508.17" y="704.59" width="485.94" height="13.97"/><rect class="cls-8" x="960.53" y="520.13" width="121" height="99.77" transform="translate(1835.19 1011.28) rotate(180)"/><rect class="cls-4" x="1021.03" y="520.13" width="121" height="99.77" transform="translate(1956.19 1011.28) rotate(180)"/><polygon class="cls-5" points="753.73 465.85 772.9 465.85 771.21 460.45 772.9 456.6 753.73 456.6 753.73 465.85"/><polygon class="cls-6" points="814.15 422.25 833.33 422.25 831.64 416.86 833.33 413 814.15 413 814.15 422.25"/><polygon class="cls-5" points="814.15 413 794.98 413 796.67 418.4 794.98 422.25 814.15 422.25 814.15 413"/><polygon class="cls-6" points="935.16 466.92 915.99 466.92 917.67 472.31 915.99 476.17 935.16 476.17 935.16 466.92"/><rect class="cls-7" x="892.41" y="398.14" width="34.82" height="13.55"/><rect class="cls-3" x="805.25" y="520.13" width="121" height="99.77" transform="translate(1524.62 1011.28) rotate(180)"/><rect class="cls-4" x="865.75" y="520.13" width="121" height="99.77" transform="translate(1645.62 1011.28) rotate(180)"/><polygon class="cls-5" points="598.44 465.85 617.62 465.85 615.93 460.45 617.62 456.6 598.44 456.6 598.44 465.85"/><polygon class="cls-6" points="658.87 422.25 678.04 422.25 676.36 416.86 678.04 413 658.87 413 658.87 422.25"/><polygon class="cls-5" points="658.87 413 639.7 413 641.39 418.4 639.7 422.25 658.87 422.25 658.87 413"/><polygon class="cls-6" points="779.88 466.92 760.7 466.92 762.39 472.31 760.7 476.17 779.88 476.17 779.88 466.92"/><polygon class="cls-6" points="779.88 411.69 760.7 411.69 762.39 417.08 760.7 420.94 779.88 420.94 779.88 411.69"/><rect class="cls-7" x="671.09" y="458.38" width="56.75" height="22.08"/><rect class="cls-3" x="960.53" y="746.78" width="104.58" height="86.23" transform="translate(1818.77 1451.05) rotate(180)"/><rect class="cls-4" x="1012.83" y="746.78" width="104.58" height="86.23" transform="translate(1923.35 1451.05) rotate(180)"/><polygon class="cls-5" points="753.72 682.4 770.29 682.4 768.83 677.74 770.29 674.4 753.72 674.4 753.72 682.4"/><polygon class="cls-6" points="805.95 644.72 822.52 644.72 821.06 640.06 822.52 636.73 805.95 636.73 805.95 644.72"/><polygon class="cls-5" points="805.95 636.73 789.37 636.73 790.83 641.39 789.37 644.72 805.95 644.72 805.95 636.73"/><polygon class="cls-6" points="910.53 683.32 893.96 683.32 895.42 687.99 893.96 691.32 910.53 691.32 910.53 683.32"/><rect class="cls-7" x="873.59" y="623.88" width="30.1" height="11.71"/><rect class="cls-3" x="761.91" y="733.25" width="121" height="99.77" transform="translate(1437.94 1437.51) rotate(180)"/><rect class="cls-4" x="822.41" y="733.25" width="121" height="99.77" transform="translate(1558.94 1437.51) rotate(180)"/><polygon class="cls-9" points="555.1 678.97 574.27 678.97 572.58 673.57 574.27 669.72 555.1 669.72 555.1 678.97"/><polygon class="cls-10" points="615.53 635.37 634.7 635.37 633.01 629.98 634.7 626.12 615.53 626.12 615.53 635.37"/><polygon class="cls-9" points="615.53 626.12 596.36 626.12 598.04 631.52 596.36 635.37 615.53 635.37 615.53 626.12"/><polygon class="cls-10" points="736.53 680.04 717.36 680.04 719.05 685.43 717.36 689.29 736.53 689.29 736.53 680.04"/><rect class="cls-7" x="693.79" y="611.26" width="34.82" height="13.55"/><rect class="cls-3" x="795.97" y="443.39" width="92.5" height="76.28" transform="translate(1477.56 834.31) rotate(180)"/><rect class="cls-4" x="842.22" y="443.39" width="92.5" height="76.28" transform="translate(1570.06 834.31) rotate(180)"/><polygon class="cls-5" points="589.14 371.57 603.8 371.57 602.51 367.45 603.8 364.5 589.14 364.5 589.14 371.57"/><polygon class="cls-6" points="635.34 338.25 650 338.25 648.71 334.12 650 331.18 635.34 331.18 635.34 338.25"/><polygon class="cls-5" points="635.34 331.18 620.68 331.18 621.97 335.3 620.68 338.25 635.34 338.25 635.34 331.18"/><polygon class="cls-6" points="727.85 372.39 713.19 372.39 714.48 376.52 713.19 379.47 727.85 379.47 727.85 372.39"/><rect class="cls-7" x="695.17" y="319.81" width="26.62" height="10.36"/><rect class="cls-3" x="961.24" y="443.39" width="92.5" height="76.28" transform="translate(1808.11 834.31) rotate(180)"/><rect class="cls-4" x="1007.49" y="443.39" width="92.5" height="76.28" transform="translate(1900.61 834.31) rotate(180)"/><polygon class="cls-5" points="754.42 371.57 769.07 371.57 767.78 367.45 769.07 364.5 754.42 364.5 754.42 371.57"/><polygon class="cls-6" points="800.61 338.25 815.27 338.25 813.98 334.12 815.27 331.18 800.61 331.18 800.61 338.25"/><polygon class="cls-5" points="800.61 331.18 785.96 331.18 787.25 335.3 785.96 338.25 800.61 338.25 800.61 331.18"/><polygon class="cls-6" points="893.12 372.39 878.46 372.39 879.75 376.52 878.46 379.47 893.12 379.47 893.12 372.39"/><rect class="cls-7" x="860.44" y="319.81" width="26.62" height="10.36"/></g><path class="cls-11" d="M1702.1,753.22l-2.3-.68c6.08-20.67-5-42.18-24.6-48L1625.71,690c-10.19-3-15.91-14.15-12.75-24.87,10.19-34.63-8.3-70.69-41.22-80.37l.71-2.42c34.19,10.06,53.39,47.51,42.81,83.47-2.76,9.38,2.25,19.15,11.16,21.77l49.49,14.56C1696.82,708.31,1708.57,731.22,1702.1,753.22Z" transform="translate(-206.88 -128.75)"/><path class="cls-11" d="M1697.1,770.2l-2.3-.68c6.08-20.67-5-42.19-24.6-48L1620.71,707c-10.19-3-15.91-14.15-12.75-24.87,10.19-34.63-8.3-70.69-41.22-80.38l.71-2.42c34.19,10.06,53.39,47.51,42.81,83.47-2.76,9.38,2.25,19.14,11.17,21.77l49.49,14.56C1691.82,725.29,1703.57,748.2,1697.1,770.2Z" transform="translate(-206.88 -128.75)"/><rect class="cls-12" x="1128.93" y="390.54" width="104.2" height="85.92"/><rect class="cls-13" x="1076.83" y="390.54" width="104.2" height="85.92"/><polygon class="cls-14" points="1233.07 454.67 1216.56 454.67 1218.01 450.02 1216.56 446.7 1233.07 446.7 1233.07 454.67"/><polygon class="cls-15" points="1181.03 417.13 1164.52 417.13 1165.97 412.48 1164.52 409.16 1181.03 409.16 1181.03 417.13"/><polygon class="cls-14" points="1181.03 409.16 1197.54 409.16 1196.09 413.81 1197.54 417.13 1181.03 417.13 1181.03 409.16"/><polygon class="cls-15" points="1076.83 455.59 1093.34 455.59 1091.89 460.24 1093.34 463.56 1076.83 463.56 1076.83 455.59"/><rect class="cls-7" x="1290.53" y="525.12" width="29.98" height="11.67" transform="translate(2404.17 933.15) rotate(180)"/><path class="cls-11" d="M1443.75,285.66c-14.94,0-30.61-2.37-39.3-7.39-13.83-8-31.38-4.6-31.55-4.56l-.43-2.12c.75-.15,18.51-3.59,33.06,4.81,14.34,8.28,50,9,66.11,3.52,15.89-5.41,37-11.23,45.77-11.23v2.16c-8.53,0-29.34,5.76-45.07,11.12C1465.2,284.39,1454.67,285.66,1443.75,285.66Z" transform="translate(-206.88 -128.75)"/><rect class="cls-11" x="1144.15" y="311.35" width="6.83" height="44.58"/><rect class="cls-11" x="1157.68" y="311.35" width="6.83" height="44.58"/><path class="cls-11" d="M1443.75,280.86c-14.94,0-30.61-2.37-39.3-7.39-13.83-8-31.38-4.6-31.55-4.56l-.43-2.12c.75-.15,18.51-3.59,33.06,4.81,14.34,8.28,50,9,66.11,3.52,15.89-5.41,37-11.23,45.77-11.23V266c-8.53,0-29.34,5.76-45.07,11.12C1465.2,279.59,1454.67,280.86,1443.75,280.86Z" transform="translate(-206.88 -128.75)"/><path class="cls-11" d="M1587.65,541.42h-2.84v-2.16h2.84a23.86,23.86,0,0,0,23.83-23.83V268.73a23.86,23.86,0,0,0-23.83-23.83h-21v-2.16h21a26,26,0,0,1,26,26v246.7A26,26,0,0,1,1587.65,541.42Z" transform="translate(-206.88 -128.75)"/><path class="cls-11" d="M1584.81,520.53v-2.16a16.59,16.59,0,0,0,16.58-16.58V272.47a16.09,16.09,0,0,0-16.07-16.07h-16.67v-2.16h16.67a18.26,18.26,0,0,1,18.24,18.24V501.79A18.76,18.76,0,0,1,1584.81,520.53Z" transform="translate(-206.88 -128.75)"/><rect class="cls-16" x="1108.66" y="158.94" width="89.45" height="162.31" rx="26.85" ry="26.85"/><circle class="cls-17" cx="1133.18" cy="182.03" r="7.78"/><circle class="cls-17" cx="1133.18" cy="293.02" r="7.78"/><circle class="cls-17" cx="1173.59" cy="182.03" r="7.78"/><circle class="cls-17" cx="1173.59" cy="293.02" r="7.78"/><path class="cls-13" d="M1393.49,492.33a11.28,11.28,0,0,1-1,4.64h-61.14a11.28,11.28,0,0,1-1-4.64c0-10.13,14.15-18.34,31.59-18.34S1393.49,482.2,1393.49,492.33Z" transform="translate(-206.88 -128.75)"/><path class="cls-11" d="M1446.43,513.24v83.08a20.27,20.27,0,0,1-8.76,16.69l-25.34,17.47a4,4,0,0,1-5.56-1h0a4,4,0,0,1,1-5.56l25.34-17.47a12.28,12.28,0,0,0,5.31-10.11V513.24A16.27,16.27,0,0,0,1422.17,497H1301.62a16.27,16.27,0,0,0-16.27,16.27v82.61a12.2,12.2,0,0,0,5.77,10.41l28.31,17.7a4,4,0,0,1,1.27,5.5h0a4,4,0,0,1-5.5,1.27L1286.89,613a20.16,20.16,0,0,1-9.53-17.19V513.24A24.26,24.26,0,0,1,1301.62,489h120.55A24.26,24.26,0,0,1,1446.43,513.24Z" transform="translate(-206.88 -128.75)"/><rect class="cls-11" x="1150.96" y="108.98" width="166.11" height="5"/><rect class="cls-11" x="1150.96" y="122.99" width="166.11" height="5"/><path class="cls-13" d="M1381.8,287.69h-49.53V252.94a25.57,25.57,0,0,1,25.57-25.57h0a25.57,25.57,0,0,1,25.57,25.57v33.14A1.61,1.61,0,0,1,1381.8,287.69Z" transform="translate(-206.88 -128.75)"/><rect class="cls-16" x="1304.01" y="98.62" width="68.25" height="493.55" rx="34.13" ry="34.13"/><circle class="cls-11" cx="1338.14" cy="122.6" r="3.97"/><rect class="cls-18" x="1295.86" y="168.16" width="82.07" height="329.22" rx="18.55" ry="18.55"/><path class="cls-18" d="M1313.81,561.72h51a17.95,17.95,0,0,1,17.95,17.95v37.46a0,0,0,0,1,0,0h-68.9a17.95,17.95,0,0,1-17.95-17.95V579.66A17.95,17.95,0,0,1,1313.81,561.72Z"/><circle class="cls-13" cx="1150.96" cy="122.99" r="15.12"/><path class="cls-11" d="M1357.84,267.32a15.59,15.59,0,1,1,15.59-15.59A15.6,15.6,0,0,1,1357.84,267.32Zm0-30.24a14.65,14.65,0,1,0,14.65,14.65A14.66,14.66,0,0,0,1357.84,237.09Z" transform="translate(-206.88 -128.75)"/><circle class="cls-12" cx="1150.96" cy="122.99" r="9.23"/><rect class="cls-3" x="1702.66" y="678.71" width="64.96" height="53.57" transform="translate(3399.82 501.13) rotate(155.56)"/><rect class="cls-4" x="1732.23" y="665.27" width="64.96" height="53.57" transform="translate(3450.75 463.2) rotate(155.56)"/><polygon class="cls-10" points="1524.04 567.45 1533.41 563.19 1531.39 560.93 1531.36 558.67 1521.99 562.93 1524.04 567.45"/><polygon class="cls-9" points="1521.99 562.93 1512.62 567.19 1514.64 569.45 1514.67 571.71 1524.04 567.45 1521.99 562.93"/><polygon class="cls-10" points="1593.11 562.4 1583.73 566.66 1585.76 568.92 1585.79 571.18 1595.16 566.92 1593.11 562.4"/><rect class="cls-7" x="1764.48" y="662.84" width="18.69" height="7.27" transform="translate(-323.68 664.85) rotate(-24.44)"/><path class="cls-11" d="M1824.24,853c-.22.69-.46,1.38-.69,2.08q-3,8.83-6.63,17.92-.5,1.27-1,2.54-4.41,10.83-9.75,22.06h-79.52l-4.56-42.52-.22-2.08-.17-1.63-11.32-105.52-.09-.81,6-2.67,29.65-13.25,29.66-13.25,29.65-13.24,22-9.84q.55,1.56,1.08,3.12c.32.94.63,1.88.93,2.83C1842.82,741.05,1844.46,792.29,1824.24,853Z" transform="translate(-206.88 -128.75)"/><path class="cls-19" d="M1824.24,853c-.22.69-.46,1.38-.69,2.08H1730l-.2-2.08-.16-1.63L1719.42,748l4.72-2.11,105.1-47.12C1842.82,741.05,1844.46,792.29,1824.24,853Z" transform="translate(-206.88 -128.75)"/><path class="cls-16" d="M1730,855.09H929.54a54.61,54.61,0,0,1-54.61-54.61h0a54.61,54.61,0,0,1,54.61-54.61H1730a54.61,54.61,0,0,1,54.61,54.61h0A54.61,54.61,0,0,1,1730,855.09Z" transform="translate(-206.88 -128.75)"/><path class="cls-20" d="M1784.62,800.48A54.6,54.6,0,0,1,1730,855.09H1594.28a5.27,5.27,0,0,1-5.27-5.27V751.14a5.27,5.27,0,0,1,5.27-5.27H1730A54.61,54.61,0,0,1,1784.62,800.48Z" transform="translate(-206.88 -128.75)"/><path class="cls-20" d="M1824.24,853c-.22.69-.46,1.38-.69,2.08q-3,8.83-6.63,17.92-.5,1.27-1,2.54-4.41,10.83-9.75,22.06h0l-86.64,0L924.07,898V853Z" transform="translate(-206.88 -128.75)"/><path class="cls-18" d="M1164.08,794.59l-6.16-2.86a1.49,1.49,0,0,1-.86-1.31c0-.72-.07-1.45-.15-2.18a24.7,24.7,0,0,0-.73-3.94,1.48,1.48,0,0,1,.54-1.58l5.64-4.3a1.46,1.46,0,0,0,.35-2l-3.47-5.48a1.44,1.44,0,0,0-1.85-.52l-5.86,2.88a1.46,1.46,0,0,1-1.72-.3,26.15,26.15,0,0,0-6.6-5,1.49,1.49,0,0,1-.74-1.67l1-3.86a1.51,1.51,0,0,0-.94-1.76l-6.05-2.19a1.15,1.15,0,0,0-.38-.09,1.43,1.43,0,0,0-1.45.84l-2.14,4.6-.52,1.12a25.07,25.07,0,0,0-3.67.14,26.14,26.14,0,0,0-4.8,1,1.45,1.45,0,0,1-1.58-.51l-3.46-4.55a1.5,1.5,0,0,0-2-.35l-4.19,2.65-1.2.76a1.51,1.51,0,0,0-.55,2l2.4,4.9a1.44,1.44,0,0,1-.27,1.68,26.58,26.58,0,0,0-3.47,4.36,4.55,4.55,0,0,0-.25.39.49.49,0,0,1-.09.13,1.46,1.46,0,0,1-1.55.54l-6.27-1.54-.21,0a1.5,1.5,0,0,0-1.54,1l-2.19,6a1.5,1.5,0,0,0,.78,1.87l6.43,3a1.44,1.44,0,0,1,.85,1.4,26.6,26.6,0,0,0,.13,4c.08.73.19,1.44.32,2.14a1.53,1.53,0,0,1-.58,1.5l-5.43,4.14a1.45,1.45,0,0,0-.35,1.93l3.44,5.42a1.53,1.53,0,0,0,2,.55l4.64-2.27a1.49,1.49,0,0,1,1.81.38,26.36,26.36,0,0,0,6,5.34,1.47,1.47,0,0,1,.65,1.62l-1.39,5.65a1.55,1.55,0,0,0,1,1.81l6,2.19a1.48,1.48,0,0,0,1.84-.77l.12-.27,2.49-5.34a1.5,1.5,0,0,1,1.48-.86h0a26.7,26.7,0,0,0,4.61-.09c.83-.09,1.64-.22,2.45-.39a1.48,1.48,0,0,1,1.48.55l3.51,4.62a1.53,1.53,0,0,0,2,.37l5.39-3.42a1.63,1.63,0,0,0,.39-.35,1.51,1.51,0,0,0,.16-1.57l-1.93-3.92a1.53,1.53,0,0,1,.1-1.49,1.91,1.91,0,0,1,.28-.31,26,26,0,0,0,6.44-8,1.48,1.48,0,0,1,1.4-.8l.25,0,5.07,1.24a1.49,1.49,0,0,0,1.76-.93l0-.14,2.14-5.88A1.52,1.52,0,0,0,1164.08,794.59Zm-20,1.95a14.18,14.18,0,0,1-3.79,5.26,9.22,9.22,0,0,1-1.1.82,16.22,16.22,0,0,1-5.05,2.11,14.06,14.06,0,0,1-16.94-16.2,17,17,0,0,1,.83-3.14,13.69,13.69,0,0,1,4.69-5.82l.58-.36C1135.35,772.16,1148.88,783.24,1144.12,796.53Z" transform="translate(-206.88 -128.75)"/><path class="cls-19" d="M1205.76,821.09l-4.43-2.06a1.08,1.08,0,0,1-.62-.94c0-.52,0-1-.11-1.57a18.06,18.06,0,0,0-.53-2.83,1.08,1.08,0,0,1,.38-1.14l4.06-3.1a1,1,0,0,0,.25-1.4l-2.5-3.94a1,1,0,0,0-1.33-.38l-4.21,2.08a1,1,0,0,1-1.23-.22,18.93,18.93,0,0,0-4.75-3.58,1.07,1.07,0,0,1-.53-1.19l.68-2.78a1.09,1.09,0,0,0-.67-1.27l-4.36-1.57a.87.87,0,0,0-.27-.06,1,1,0,0,0-1.05.6L1183,799l-.37.8a20,20,0,0,0-2.64.1,18.94,18.94,0,0,0-3.45.7,1,1,0,0,1-1.14-.37l-2.49-3.27a1.09,1.09,0,0,0-1.44-.26l-3,1.91-.86.55a1.1,1.1,0,0,0-.4,1.4l1.73,3.52a1,1,0,0,1-.19,1.21,18.92,18.92,0,0,0-2.5,3.13c-.07.09-.12.19-.19.29a.4.4,0,0,1-.06.09,1.06,1.06,0,0,1-1.11.39l-4.51-1.1-.16,0a1.08,1.08,0,0,0-1.11.7l-1.58,4.34a1.09,1.09,0,0,0,.56,1.35l4.62,2.14a1.06,1.06,0,0,1,.61,1,19,19,0,0,0,.09,2.9c.06.52.13,1,.23,1.53a1.09,1.09,0,0,1-.42,1.08l-3.9,3a1,1,0,0,0-.25,1.39l2.48,3.9a1.09,1.09,0,0,0,1.4.4l3.34-1.64a1.07,1.07,0,0,1,1.3.27,18.83,18.83,0,0,0,4.34,3.84,1.07,1.07,0,0,1,.47,1.17l-1,4.06a1.11,1.11,0,0,0,.7,1.3l4.33,1.57a1,1,0,0,0,1.32-.55l.09-.19,1.79-3.85a1.08,1.08,0,0,1,1.06-.62h0a18.56,18.56,0,0,0,3.31-.07c.6-.06,1.18-.16,1.77-.27a1.06,1.06,0,0,1,1.07.39l2.52,3.33a1.1,1.1,0,0,0,1.46.26l3.88-2.46a1.19,1.19,0,0,0,.27-.25,1.1,1.1,0,0,0,.12-1.13l-1.39-2.82a1.09,1.09,0,0,1,.07-1.07,1,1,0,0,1,.2-.22,18.73,18.73,0,0,0,4.64-5.79,1.06,1.06,0,0,1,1-.57l.18,0,3.65.89a1.07,1.07,0,0,0,1.26-.67l0-.1,1.54-4.23A1.09,1.09,0,0,0,1205.76,821.09Zm-14.35,1.4a10.2,10.2,0,0,1-2.73,3.78,5.84,5.84,0,0,1-.8.59,11.66,11.66,0,0,1-3.63,1.52,10.12,10.12,0,0,1-12.18-11.65,12.27,12.27,0,0,1,.6-2.26,9.88,9.88,0,0,1,3.37-4.19l.42-.26C1185.1,805,1194.83,812.93,1191.41,822.49Z" transform="translate(-206.88 -128.75)"/><path class="cls-18" d="M1400.31,794.59l-6.16-2.86a1.5,1.5,0,0,1-.86-1.31c0-.72-.06-1.45-.14-2.18a25.32,25.32,0,0,0-.73-3.94,1.48,1.48,0,0,1,.53-1.58l5.64-4.3a1.45,1.45,0,0,0,.35-2l-3.47-5.48a1.44,1.44,0,0,0-1.85-.52l-5.87,2.88a1.45,1.45,0,0,1-1.71-.3,26.09,26.09,0,0,0-6.61-5,1.5,1.5,0,0,1-.74-1.67l1-3.86a1.51,1.51,0,0,0-.94-1.76l-6.06-2.19a1.12,1.12,0,0,0-.37-.09,1.45,1.45,0,0,0-1.46.84l-2.14,4.6-.52,1.12a25.08,25.08,0,0,0-3.67.14,26.14,26.14,0,0,0-4.8,1,1.45,1.45,0,0,1-1.59-.51l-3.46-4.55a1.49,1.49,0,0,0-2-.35l-4.19,2.65-1.19.76a1.52,1.52,0,0,0-.56,2l2.41,4.9a1.45,1.45,0,0,1-.27,1.68,25.93,25.93,0,0,0-3.47,4.36,4.56,4.56,0,0,0-.25.39.71.71,0,0,1-.09.13,1.47,1.47,0,0,1-1.55.54l-6.27-1.54-.21,0a1.5,1.5,0,0,0-1.54,1l-2.19,6a1.5,1.5,0,0,0,.78,1.87l6.43,3a1.44,1.44,0,0,1,.85,1.4,25.76,25.76,0,0,0,.13,4c.07.73.19,1.44.32,2.14a1.53,1.53,0,0,1-.57,1.5l-5.43,4.14a1.45,1.45,0,0,0-.35,1.93l3.44,5.42a1.52,1.52,0,0,0,2,.55l4.64-2.27a1.5,1.5,0,0,1,1.81.38,26.22,26.22,0,0,0,6,5.34,1.48,1.48,0,0,1,.65,1.62l-1.39,5.65a1.55,1.55,0,0,0,1,1.81l6,2.19a1.47,1.47,0,0,0,1.84-.77l.13-.27,2.49-5.34a1.49,1.49,0,0,1,1.47-.86h0a26.64,26.64,0,0,0,4.61-.09c.83-.09,1.65-.22,2.46-.39a1.48,1.48,0,0,1,1.49.55l3.51,4.62a1.53,1.53,0,0,0,2,.37l5.39-3.42a1.78,1.78,0,0,0,.39-.35,1.51,1.51,0,0,0,.15-1.57l-1.93-3.92a1.52,1.52,0,0,1,.1-1.49,1.47,1.47,0,0,1,.28-.31,26.1,26.1,0,0,0,6.44-8,1.47,1.47,0,0,1,1.4-.8,1.14,1.14,0,0,1,.25,0l5.08,1.24a1.49,1.49,0,0,0,1.75-.93l0-.14,2.14-5.88A1.52,1.52,0,0,0,1400.31,794.59Zm-20,1.95a14.26,14.26,0,0,1-3.79,5.26,9.17,9.17,0,0,1-1.1.82,16.25,16.25,0,0,1-5.06,2.11,14.07,14.07,0,0,1-16.94-16.2,17.6,17.6,0,0,1,.84-3.14,13.68,13.68,0,0,1,4.68-5.82l.59-.36C1371.59,772.16,1385.11,783.24,1380.36,796.53Z" transform="translate(-206.88 -128.75)"/><path class="cls-19" d="M1442,821.09l-4.43-2.06a1.07,1.07,0,0,1-.62-.94c0-.52,0-1-.11-1.57a18,18,0,0,0-.53-2.83,1.06,1.06,0,0,1,.38-1.14l4.06-3.1a1,1,0,0,0,.25-1.4l-2.49-3.94a1,1,0,0,0-1.33-.38l-4.22,2.08a1,1,0,0,1-1.23-.22A18.9,18.9,0,0,0,1427,802a1.07,1.07,0,0,1-.53-1.19l.69-2.78a1.09,1.09,0,0,0-.68-1.27l-4.36-1.57a.79.79,0,0,0-.27-.06,1,1,0,0,0-1.05.6l-1.54,3.31-.37.8a19.92,19.92,0,0,0-2.64.1,18.84,18.84,0,0,0-3.45.7,1,1,0,0,1-1.14-.37l-2.49-3.27a1.08,1.08,0,0,0-1.44-.26l-3,1.91-.86.55a1.09,1.09,0,0,0-.4,1.4l1.73,3.52a1,1,0,0,1-.19,1.21,19.18,19.18,0,0,0-2.49,3.13,2.78,2.78,0,0,0-.19.29l-.06.09a1.07,1.07,0,0,1-1.12.39l-4.51-1.1-.16,0a1.08,1.08,0,0,0-1.11.7l-1.58,4.34a1.08,1.08,0,0,0,.56,1.35l4.62,2.14a1,1,0,0,1,.61,1,18.93,18.93,0,0,0,.09,2.9c.06.52.14,1,.24,1.53a1.1,1.1,0,0,1-.42,1.08l-3.9,3a1,1,0,0,0-.25,1.39l2.47,3.9a1.09,1.09,0,0,0,1.41.4l3.34-1.64a1.07,1.07,0,0,1,1.3.27,18.85,18.85,0,0,0,4.35,3.84,1.08,1.08,0,0,1,.47,1.17l-1,4.06a1.11,1.11,0,0,0,.69,1.3l4.33,1.57a1.05,1.05,0,0,0,1.32-.55l.09-.19,1.78-3.85a1.08,1.08,0,0,1,1.06-.62h0a18.62,18.62,0,0,0,3.32-.07c.6-.06,1.18-.16,1.77-.27a1,1,0,0,1,1.06.39l2.53,3.33a1.1,1.1,0,0,0,1.46.26l3.88-2.46a1.07,1.07,0,0,0,.39-1.38l-1.39-2.82a1.09,1.09,0,0,1,.07-1.07,1,1,0,0,1,.2-.22,18.82,18.82,0,0,0,4.64-5.79,1,1,0,0,1,1-.57l.18,0,3.65.89a1.07,1.07,0,0,0,1.26-.67l0-.1,1.53-4.23A1.09,1.09,0,0,0,1442,821.09Zm-14.36,1.4a10.18,10.18,0,0,1-2.72,3.78,6.66,6.66,0,0,1-.8.59,11.7,11.7,0,0,1-3.64,1.52,10.12,10.12,0,0,1-12.18-11.65,12.81,12.81,0,0,1,.6-2.26,9.83,9.83,0,0,1,3.37-4.19l.42-.26C1421.34,805,1431.06,812.93,1427.64,822.49Z" transform="translate(-206.88 -128.75)"/><path class="cls-18" d="M1267.8,788.92l-6.69-1.18a1.5,1.5,0,0,1-1.16-1.05c-.2-.7-.44-1.39-.7-2.07a25.68,25.68,0,0,0-1.72-3.62,1.48,1.48,0,0,1,.11-1.67l4.36-5.6a1.46,1.46,0,0,0-.17-2l-4.76-4.41a1.44,1.44,0,0,0-1.91,0l-4.93,4.29a1.44,1.44,0,0,1-1.73.14,26.19,26.19,0,0,0-7.66-3.11,1.5,1.5,0,0,1-1.14-1.42l-.07-4a1.51,1.51,0,0,0-1.36-1.47l-6.42-.57a1.35,1.35,0,0,0-.39,0,1.46,1.46,0,0,0-1.19,1.19l-.89,5-.21,1.22a26.2,26.2,0,0,0-3.51,1.07,27,27,0,0,0-4.39,2.18,1.45,1.45,0,0,1-1.66-.09l-4.51-3.51a1.49,1.49,0,0,0-2,.17l-3.37,3.64-1,1a1.52,1.52,0,0,0,0,2l3.58,4.13a1.44,1.44,0,0,1,.17,1.69,26.22,26.22,0,0,0-2.24,5.1c-.06.15-.1.29-.15.44a.58.58,0,0,1,0,.15,1.48,1.48,0,0,1-1.36.92l-6.46.12a.8.8,0,0,0-.21,0,1.51,1.51,0,0,0-1.24,1.34l-.57,6.4a1.49,1.49,0,0,0,1.23,1.6l7,1.24a1.44,1.44,0,0,1,1.17,1.14,26.31,26.31,0,0,0,1.16,3.86c.26.68.55,1.34.86,2a1.53,1.53,0,0,1-.17,1.6l-4.19,5.39a1.46,1.46,0,0,0,.16,2l4.72,4.36a1.52,1.52,0,0,0,2,0l3.9-3.39a1.5,1.5,0,0,1,1.85-.1,26.18,26.18,0,0,0,7.21,3.62,1.48,1.48,0,0,1,1,1.4l.11,5.82a1.53,1.53,0,0,0,1.39,1.49l6.37.58a1.48,1.48,0,0,0,1.58-1.21l.06-.29,1-5.8a1.5,1.5,0,0,1,1.21-1.22h0a25.92,25.92,0,0,0,4.43-1.27c.78-.3,1.54-.63,2.27-1a1.47,1.47,0,0,1,1.57.15l4.58,3.57a1.52,1.52,0,0,0,2.06-.16l4.34-4.69a1.7,1.7,0,0,0,.28-.44,1.52,1.52,0,0,0-.25-1.56l-2.87-3.29a1.51,1.51,0,0,1-.29-1.46,1.78,1.78,0,0,1,.19-.37,26.15,26.15,0,0,0,4.17-9.43,1.45,1.45,0,0,1,1.15-1.13l.25,0,5.23-.09a1.49,1.49,0,0,0,1.45-1.36v-.15l.57-6.23A1.52,1.52,0,0,0,1267.8,788.92Zm-18.79,7a14.34,14.34,0,0,1-2.32,6,10.1,10.1,0,0,1-.86,1.08,16.1,16.1,0,0,1-4.34,3.34A14.07,14.07,0,0,1,1221,795.06a17.73,17.73,0,0,1,0-3.25,13.66,13.66,0,0,1,3-6.82l.47-.5C1234.3,774.6,1250.2,781.85,1249,795.92Z" transform="translate(-206.88 -128.75)"/><path class="cls-19" d="M1824.24,853c-.22.69-.46,1.38-.69,2.08q-3,8.83-6.63,17.92-.5,1.27-1,2.54-4.41,10.83-9.75,22.06h0l-86.64,0V853Z" transform="translate(-206.88 -128.75)"/><path class="cls-11" d="M1730,857.54H929.54a57.06,57.06,0,0,1,0-114.12H1730a57.06,57.06,0,0,1,0,114.12ZM929.54,748.32a52.16,52.16,0,1,0,0,104.32H1730a52.16,52.16,0,0,0,0-104.32Z" transform="translate(-206.88 -128.75)"/><rect class="cls-21" x="222.74" y="331.18" width="61.87" height="60.02" rx="7.81" ry="7.81"/><rect class="cls-22" x="225.42" y="333.78" width="56.51" height="54.82" rx="7.14" ry="7.14"/><circle class="cls-23" cx="253.67" cy="339.25" r="1.28"/><circle class="cls-23" cx="470.73" cy="470.44" r="1.28" transform="translate(-376.01 524.66) rotate(-60.94)"/><circle class="cls-23" cx="479.17" cy="477.93" r="1.28" transform="translate(-389.46 207.37) rotate(-32.83)"/><circle class="cls-23" cx="275.98" cy="360.28" r="1.28"/><circle class="cls-23" cx="479.71" cy="501.3" r="1.28" transform="translate(-420.85 357.23) rotate(-45)"/><circle class="cls-23" cx="471.66" cy="509.37" r="1.28" transform="translate(-428.91 353.9) rotate(-45)"/><circle class="cls-23" cx="253.67" cy="383.87" r="1.28"/><circle class="cls-23" cx="450.33" cy="470.44" r="1.28" transform="translate(-378.7 149.24) rotate(-29.06)"/><circle class="cls-23" cx="441.9" cy="477.93" r="1.28" transform="translate(-406.15 461.43) rotate(-57.17)"/><circle class="cls-23" cx="231.32" cy="360.28" r="1.28"/><circle class="cls-23" cx="441.35" cy="501.3" r="1.28" transform="translate(-432.09 330.21) rotate(-45)"/><circle class="cls-23" cx="449.4" cy="509.37" r="1.28" transform="translate(-435.43 338.21) rotate(-45)"/><circle class="cls-23" cx="254.61" cy="360.28" r="1.28"/><rect class="cls-23" x="254.43" y="344.27" width="0.35" height="16.01"/><rect class="cls-23" x="460.17" y="485.15" width="10.79" height="1.05" transform="translate(-407.42 262.4) rotate(-38.13)"/><rect class="cls-24" x="1003.46" y="592.29" width="79.15" height="65.27" transform="translate(1879.19 1121.1) rotate(180)"/><rect class="cls-13" x="1043.04" y="592.29" width="79.15" height="65.27" transform="translate(1958.35 1121.1) rotate(180)"/><polygon class="cls-25" points="796.63 512.26 809.17 512.26 808.06 508.73 809.17 506.2 796.63 506.2 796.63 512.26"/><polygon class="cls-15" points="836.16 483.74 848.7 483.74 847.59 480.21 848.7 477.69 836.16 477.69 836.16 483.74"/><polygon class="cls-25" points="836.16 477.69 823.61 477.69 824.72 481.22 823.61 483.74 836.16 483.74 836.16 477.69"/><polygon class="cls-15" points="915.31 512.96 902.77 512.96 903.87 516.49 902.77 519.01 915.31 519.01 915.31 512.96"/><rect class="cls-7" x="887.35" y="467.97" width="22.78" height="8.86"/><path class="cls-26" d="M1084.85,654.78c1.92-1.25,6.28-4,6.47-3.33a2.85,2.85,0,0,1-.66,2.06c2.6-.86,5.23-1.39,11.35,0a4.62,4.62,0,0,1,3,2.11,2,2,0,0,1-.83,3.15c-3.22,1.83-2.26.7-6.74,3.37s-9.86,3.2-13,1.08l-4.26-.88-.26-7.07S1082.35,655.1,1084.85,654.78Z" transform="translate(-206.88 -128.75)"/><path class="cls-15" d="M997.8,584.56c-11.74,7.31-23.9-2.62-23.9-2.62a55.13,55.13,0,0,0,1.75-27.64c-.12-.64,20.48,7.85,21.1,8h0l0,.14,0,.3c.32,2.77.55,5.53.7,8.09C998,578.49,997.8,584.56,997.8,584.56Z" transform="translate(-206.88 -128.75)"/><path class="cls-27" d="M997.51,570.81c-9.35-.85-16.54-6.09-18.93-9-.73-.89,17.62.47,18.17.51h0l0,.14q0,.11,0,.3C997.14,565.49,997.36,568.24,997.51,570.81Z" transform="translate(-206.88 -128.75)"/><path class="cls-15" d="M1000.59,561s-20.19,8.93-25.56-3.73-11.59-20,1.08-26.27,17.24-2.47,20.05,1.32S1005.7,558.32,1000.59,561Z" transform="translate(-206.88 -128.75)"/><path class="cls-9" d="M976.43,560.7c-.25.24-4.54,2.49-16.36-13a15.2,15.2,0,0,1-1.68-13.83c2.19-5.74,12.6-11.88,21.55-15.38a18.08,18.08,0,0,1,11.27-.52,7,7,0,0,1,4.92,8.69c-1.69,5.93-5.89,9.56-11.2,9.4-3.56-.11-3.33,7.16-3.27,8.89s-.06,3.21-4.54,2.49c-3.84-.62-1.67,4.45-.38,6.74a6.73,6.73,0,0,1,.91,3.69A4.16,4.16,0,0,1,976.43,560.7Z" transform="translate(-206.88 -128.75)"/><path class="cls-28" d="M945.52,897.95h-13c-2.73,0-5.76-2.73-6.52-7.73s-6.37-7.73-7.58-11.83,5-9.86,5-9.86l1-1.34,1.08-1.39,10.31,2.42s.25,2.45.41,5.58a71.43,71.43,0,0,1,0,7.16c-.3,5.46,1.53,11.34,6.38,12.4S945.52,897.95,945.52,897.95Z" transform="translate(-206.88 -128.75)"/><path class="cls-28" d="M1036.12,897.95h-34.5a3.11,3.11,0,0,1-.73-.21c-2.3-1.15-1.58-10-1.31-12.7.05-.5.09-.8.09-.8s12.13-9.7,13.8-2.27c.05.23.11.46.18.68h0c2.11,7,11.52,10.11,17,11C1034.77,894.31,1035.85,896.73,1036.12,897.95Z" transform="translate(-206.88 -128.75)"/><path class="cls-13" d="M1029.17,699s-1.84,23-4,50.62c-2.94,37.53-6.48,83.64-6.83,92.37-.61,15.17-3,39.43-3,39.43s-5.76,5.76-17.29,3.33c0,0-10.27-34.63-13.21-71.27l-.14-1.81c-2.73-37.3-7-115.85-7-115.85Z" transform="translate(-206.88 -128.75)"/><path class="cls-9" d="M1024.05,695.82c-4.86.29-56.18-1.65-56.19-4.51,0-10-2.13-26.1-4.73-45.7q-.71-5.48-1.13-10.86a165.09,165.09,0,0,1-.05-26.42c1.29-15.07,5.21-24.75,11.74-30.42,0,0,6.15.51,11.81,1.36,6.41,1,8.78.56,13.18-.67l7.83,6.74c4.69,4.37,8.44,8.93,10,15.23C1016.47,600.58,1024.49,695.79,1024.05,695.82Z" transform="translate(-206.88 -128.75)"/><path class="cls-29" d="M970.46,626.89a45.85,45.85,0,0,0,23.42,25.39c18,8.29,7.25-15.75,7.25-15.75Z" transform="translate(-206.88 -128.75)"/><path class="cls-13" d="M1016.47,600.58l-14,3.26-19.29,52.23A17.8,17.8,0,0,1,966,668.21l0,1.25,1,24.89,62.15,5.65s.29-31.15-.82-41.13C1026.62,644.09,1016.47,600.58,1016.47,600.58Z" transform="translate(-206.88 -128.75)"/><path class="cls-9" d="M1083.68,658.74c.44-4.08-1.65-4.84-1.65-4.84s-41.31-9.15-44.8-10.4-32.52-33.88-32.52-33.88-11.09-13.52-20.69-11c-8.34,2.19-11.82,8.5-13.15,14.58-1.59,7.25-6.59,9.56-.41,13.68,13.86,9.26,49.7,32.69,56.31,34.91,14.73,4.94,54.91,2.48,54.91,2.48A12.92,12.92,0,0,0,1083.68,658.74Z" transform="translate(-206.88 -128.75)"/><path class="cls-12" d="M987.93,588.71c-3.26-3-14.24-10.79-14.24-10.79a8.17,8.17,0,0,1,1.09-1.38,8.49,8.49,0,0,1,1.39-1.1c1.4-.3,12.21,7.84,15.81,11,4.34,3.86,16.37,16,16.37,16l-5.9,1.37S991.77,592.28,987.93,588.71Z" transform="translate(-206.88 -128.75)"/><path class="cls-13" d="M1001.45,531.08s-8.05,4.53-11,5.29l-14,3.53-18.84,6.93s-6.39-13.76,1.49-24.55h0c.2-.27.41-.54.62-.81a25.79,25.79,0,0,1,9.67-7.12C991.55,504.32,1001.2,530.25,1001.45,531.08Z" transform="translate(-206.88 -128.75)"/><path class="cls-30" d="M990.61,535.91,987,537.06c-3.56-3.28-16.56-14.56-28.13-14.5a2.78,2.78,0,0,1,.14-.29h0c.15-.27.29-.42.5-.82h.12C974.63,522.33,987.58,533,990.61,535.91Z" transform="translate(-206.88 -128.75)"/><path class="cls-13" d="M976.39,539.9a16.19,16.19,0,0,0-2.16,6.12c-.16,2.84-12.51,6.74-13.63,5.48a38.65,38.65,0,0,1-3-4.68Z" transform="translate(-206.88 -128.75)"/><path class="cls-30" d="M976.39,539.9s23.36-3.75,33-11.26a1,1,0,0,0-.55-1.81,46,46,0,0,0-9,.59S992.75,535.83,976.39,539.9Z" transform="translate(-206.88 -128.75)"/><path class="cls-12" d="M1022.31,697.47s1.19,14.34-5.44,41.25c-4.87,19.74-32.06,74.75-32.06,74.75l-.14-1.81c-2.73-37.3-7-115.85-7-115.85Z" transform="translate(-206.88 -128.75)"/><path class="cls-13" d="M1022.31,697.47S987.55,785,965.72,824.1s-28.66,50-28.66,50-12.51-5-13.65-8.42c0,0,8.35-75.52,23-93.93,8.26-10.4,18-41.62,18.42-52.54s1.67-37.07,1.67-37.07Z" transform="translate(-206.88 -128.75)"/><g class="cls-31"><path class="cls-3" d="M1543.2,181.88q4.67,1.57,9.31,3.27l-20-.09h0l-5.25,0h0l-61.28-.27-5.26,0h0l-61.29-.27-5.26,0h0l-61.29-.27-5.26,0h0l-61.29-.27-5.26,0h0l-61.29-.27-5.26,0h0l-61.28-.27-5.26,0h0l-61.29-.27-5.27,0h0l-61.28-.27-5.27,0h0l-61.28-.27-5.27,0h0L867,182.14l-5.27,0h0l-61.28-.27-5.27,0h0l-61.28-.27-5.27,0h0l-14.87-.06c1.32-1.09,2.65-2.16,4-3.21h0l11.07,0h0l66.55.3h0l66.54.29h0l66.53.29h0l66.54.29h0l66.54.29h0l66.54.29h0l66.53.29h0l66.54.29h0l66.54.29h0l66.54.29h0l66.54.29h0l66.54.29Z" transform="translate(-206.88 -128.75)"/><path class="cls-3" d="M1608.73,213.22q2.28,1.6,4.46,3.25l-929.26-4.08q1.23-1.63,2.52-3.22l19.22.08,5.27,0,61.29.27,5.26,0,61.29.27h0l5.26,0,61.29.27h0l5.26,0,61.29.27h0l5.26,0h0l61.28.27h0l5.26,0h0L1105,211h0l5.26,0h0l61.28.27h0l5.26,0h0l61.28.27h0l5.26,0h0l61.28.27h0l5.26,0h0l61.28.27h0l5.26,0h0l61.29.27h0l5.26,0h0l61.29.27h0l5.26,0h0l61.29.27h0l5.26,0h0Z" transform="translate(-206.88 -128.75)"/><path class="cls-3" d="M710.94,209.29l-1.53,2.38-3.75-2.41-12.5-8q1-1.07,1.93-2.13l15.84,10.18Z" transform="translate(-206.88 -128.75)"/><rect class="cls-3" x="750.98" y="166.19" width="2.83" height="57.87" transform="matrix(0.54, -0.84, 0.84, 0.54, -25.33, 593.92)"/><rect class="cls-3" x="817.53" y="166.48" width="2.83" height="57.87" transform="translate(5 650.05) rotate(-57.28)"/><rect class="cls-3" x="884.09" y="166.78" width="2.83" height="57.87" transform="translate(35.34 706.18) rotate(-57.28)"/><rect class="cls-3" x="950.65" y="167.07" width="2.83" height="57.87" transform="translate(65.68 762.31) rotate(-57.28)"/><rect class="cls-3" x="1017.2" y="167.36" width="2.83" height="57.87" transform="translate(96.01 818.44) rotate(-57.28)"/><rect class="cls-3" x="1083.76" y="167.65" width="2.83" height="57.87" transform="translate(126.35 874.58) rotate(-57.28)"/><rect class="cls-3" x="1150.32" y="167.95" width="2.83" height="57.87" transform="translate(156.69 930.71) rotate(-57.28)"/><rect class="cls-3" x="1216.87" y="168.24" width="2.83" height="57.87" transform="translate(187.02 986.84) rotate(-57.28)"/><rect class="cls-3" x="1283.43" y="168.53" width="2.83" height="57.87" transform="translate(217.35 1042.96) rotate(-57.28)"/><rect class="cls-3" x="1349.99" y="168.82" width="2.83" height="57.87" transform="translate(247.69 1099.1) rotate(-57.28)"/><rect class="cls-3" x="1416.54" y="169.12" width="2.83" height="57.87" transform="translate(278.03 1155.23) rotate(-57.28)"/><rect class="cls-3" x="1483.1" y="169.41" width="2.83" height="57.87" transform="translate(308.36 1211.35) rotate(-57.28)"/><rect class="cls-3" x="1549.66" y="169.7" width="2.83" height="57.87" transform="translate(338.7 1267.49) rotate(-57.28)"/></g><rect class="cls-32" x="1142.62" y="655.31" width="106.83" height="88.09" transform="translate(2185.19 1269.96) rotate(180)"/><rect class="cls-16" x="1196.04" y="655.31" width="106.83" height="88.09" transform="translate(2292.02 1269.96) rotate(180)"/><polygon class="cls-9" points="935.81 592.31 952.73 592.31 951.24 587.55 952.73 584.14 935.81 584.14 935.81 592.31"/><polygon class="cls-10" points="989.16 553.82 1006.08 553.82 1004.59 549.06 1006.08 545.66 989.16 545.66 989.16 553.82"/><polygon class="cls-9" points="989.16 545.66 972.23 545.66 973.72 550.42 972.23 553.82 989.16 553.82 989.16 545.66"/><polygon class="cls-10" points="1095.98 593.25 1079.06 593.25 1080.55 598.02 1079.06 601.42 1095.98 601.42 1095.98 593.25"/><rect class="cls-7" x="1058.25" y="532.54" width="30.74" height="11.96"/><g id="P297LW"><path class="cls-15" d="M1491,598.81s-5.06,28.8-10.6,58.89c-6,32.71-12.59,66.94-13.84,67.37-2.39.82-2.19-4.38-3.83-8.36-1.32-3.19-5.32-30.54-4-47.6.32-4.16,1.39-55.48,8.51-61.54S1491,598.81,1491,598.81Z" transform="translate(-206.88 -128.75)"/><path class="cls-15" d="M1461.19,709.07a16.89,16.89,0,0,1-.56,9.33c-1.79,4.62-2.17,5.93,1.14,8.52s6.9,6.23,9.38,5.15.95-22.21.95-22.21Z" transform="translate(-206.88 -128.75)"/><path class="cls-9" d="M1468.07,897.95c3.07-1.88,1.32-15.87,1.32-15.87s-14.32-11.46-16.29-2.68-13.6,12.71-20.23,13.78c-4.57.74-6,3.27-6.43,4.77Z" transform="translate(-206.88 -128.75)"/><path class="cls-9" d="M1531.66,897.95c3.07-1.88,1.32-15.87,1.32-15.87s-14.32-11.46-16.29-2.68-13.6,12.71-20.23,13.78c-4.57.74-6,3.27-6.43,4.77Z" transform="translate(-206.88 -128.75)"/><path class="cls-33" d="M1511.76,735.52c-5.1,21.54-11.52,46.13-14,60-.29,1.61-.53,3.07-.71,4.36s-.29,2.43-.34,3.37c-1.33,26-21.86,85.34-25.53,86.72-5.68,2.14-14.63-2.41-19.31-3.9a4,4,0,0,1-2.81-4.56c10.16-46.73,16.43-113.61,17.79-153.45.68-20.07,1.6-34.34,1.6-34.34s50.06-13.36,50.36,3.54C1518.9,703.81,1515.73,718.74,1511.76,735.52Z" transform="translate(-206.88 -128.75)"/><path class="cls-30" d="M1511.76,735.52c-5.1,21.54-11.52,46.13-14,60-.29,1.61-1.83,15.23-2,16.53L1487,712.46l12.43,1.15Z" transform="translate(-206.88 -128.75)"/><path class="cls-33" d="M1492.06,703.06l17.66,184.54s13.08,4.24,24.89,1c0,0,6.87-100.9,6.22-125.56s5.56-66-1.42-70.55S1492.06,703.06,1492.06,703.06Z" transform="translate(-206.88 -128.75)"/><path class="cls-9" d="M1539.06,653.71c.19,2.11,1,41.44,1,42.92s-4.39,4.87-20.1,7.2a147.15,147.15,0,0,1-19.92,1.5c-19.59.22-27.08-8-27.08-8-1.34,0,1.49-9.55,1.95-71.74a2.84,2.84,0,0,1-1-.06c-6.94-2.7-13.41-8.33-13.41-8.33s7.87-21.86,15.31-33c1.81-2.72,6.7-4.85,13.21-6.24,1.71-.37,3.54-.68,5.44-.94a110.42,110.42,0,0,1,29.52.19c1.73.24,3.43.53,5.1.88,7.35,1.49,14,3.88,18.67,7.3,6.92,5,12.07,30.77,12.07,30.77s-6.52,7.4-21.19,11C1537.89,641.95,1538.2,644,1539.06,653.71Z" transform="translate(-206.88 -128.75)"/><path class="cls-33" d="M1468.42,693.72l6-74.5a8,8,0,0,1,8.32-7.34l40.74,1.6a6.49,6.49,0,0,1,6.23,6.15c.5,9.78,2.37,28.79,9.37,34.09l3.69,53.93-45.53,41.22s-5.17-30.21-12.28-38.6C1481,705.56,1468.42,693.72,1468.42,693.72Z" transform="translate(-206.88 -128.75)"/><path class="cls-33" d="M1529.11,578.07l-4.92,38.07-5.11-.81,4.93-38.14C1525.74,577.43,1527.44,577.73,1529.11,578.07Z" transform="translate(-206.88 -128.75)"/><path class="cls-33" d="M1494.49,577l-6.31,34.15-.53,2.87-.57-.13-4.49-1L1489,578C1490.75,577.58,1492.58,577.27,1494.49,577Z" transform="translate(-206.88 -128.75)"/><path class="cls-15" d="M1559.85,656.74s-3.06,9.29-42.38,22.15c0,0-.45-10.5,1.94-11.91,7.39-4.34,25-17.29,25.6-19.57.4-1.51-3.61-12.95-8.68-24.45,9.32-1,15.33-1.87,22.2-5.56C1561.09,635.49,1564.61,648.15,1559.85,656.74Z" transform="translate(-206.88 -128.75)"/><path class="cls-15" d="M1513,667.48s-3.28-2.51-5.8-2.88-6.76-2-6.08-.49,5.33,3.84,5.33,3.84Z" transform="translate(-206.88 -128.75)"/><path class="cls-34" d="M1506.7,684.05l-12.81,1.56a2.93,2.93,0,0,1-3.16-2.06L1482,654.48a2.93,2.93,0,0,1,2.45-3.76l12.81-1.56a2.93,2.93,0,0,1,3.16,2.06l8.77,29.07A2.93,2.93,0,0,1,1506.7,684.05Z" transform="translate(-206.88 -128.75)"/><path class="cls-35" d="M1502.16,684.61l-12.81,1.56a2.93,2.93,0,0,1-3.16-2.06L1477.42,655a2.93,2.93,0,0,1,2.45-3.76l12.81-1.56a2.93,2.93,0,0,1,3.16,2.06l8.77,29.07A2.93,2.93,0,0,1,1502.16,684.61Z" transform="translate(-206.88 -128.75)"/><path class="cls-35" d="M1493.1,655.31h0a.89.89,0,0,1-.9-.58l-8.58-25.51a.54.54,0,0,1,.46-.74h0a.89.89,0,0,1,.9.58l8.58,25.51A.54.54,0,0,1,1493.1,655.31Z" transform="translate(-206.88 -128.75)"/><path class="cls-15" d="M1519.41,667s-2.28,1.41-3.9,1a10.86,10.86,0,0,1-4.06-1.53c-1.63-1.11-5.25.36-6.31,1.07-3,2-13.08,1.91-13.08,3.9s4.39,7.59,9.7,9.25,15.72-1.77,15.72-1.77Z" transform="translate(-206.88 -128.75)"/><path class="cls-15" d="M1519.54,576.28c.22,5.92-5,8.8-12.89,7.68s-8-7.22-8-7.22l.19-5.9.22-7,.2-6.24,19,2.58a23.21,23.21,0,0,0,0,3h0C1518.49,566.94,1519,573,1519.54,576.28Z" transform="translate(-206.88 -128.75)"/><path class="cls-27" d="M1518.31,563.2h0c-.18.25-4.52,6.18-19.48,7.63l.22-7,19.26-.65Z" transform="translate(-206.88 -128.75)"/><path class="cls-15" d="M1495.38,567.14s23.42,4.73,26.14-9.9,7.58-23.87-7.26-27.51-18.79,1.4-20.88,6.06S1489.36,565.53,1495.38,567.14Z" transform="translate(-206.88 -128.75)"/><path class="cls-34" d="M1520.44,560.49s8.14,1.83,8.91-13c.3-5.71,1.72-25.74-14.59-25.06s-23.73,10.22-25.22,11.89c-11.13,12.56,15.95,3.21,19.55,6.13s.17,7.72,4.29,9.44,7.38,1.72,6.69,5.49S1520.44,560.49,1520.44,560.49Z" transform="translate(-206.88 -128.75)"/><path class="cls-13" d="M1487.37,534.63s8.72,3,11.78,3.26l14.44,1,19.77,3.49s3.86-14.68-5.81-23.9h0c-.24-.23-.49-.46-.75-.68a25.79,25.79,0,0,0-10.78-5.3C1492.38,506.55,1487.47,533.77,1487.37,534.63Z" transform="translate(-206.88 -128.75)"/><path class="cls-30" d="M1498.89,537.47l3.74.5c2.92-3.86,13.73-17.26,25.12-19.24a2.82,2.82,0,0,0-.19-.26h0c-.2-.24-.36-.36-.64-.71l-.12,0C1512.22,521.28,1501.36,534,1498.89,537.47Z" transform="translate(-206.88 -128.75)"/><path class="cls-13" d="M1513.6,538.88a16.18,16.18,0,0,1,3.21,5.64c.66,2.77,13.5,4.43,14.39,3a38.63,38.63,0,0,0,2.17-5.15Z" transform="translate(-206.88 -128.75)"/><path class="cls-30" d="M1513.6,538.88s-23.65.44-34.46-5.25a1,1,0,0,1,.22-1.88,46,46,0,0,1,9-1S1496.78,537.78,1513.6,538.88Z" transform="translate(-206.88 -128.75)"/></g><rect class="cls-16" x="87.89" y="590.03" width="252.77" height="183.85"/><polygon class="cls-16" points="372.67 381.75 338.2 381.75 338.2 769.19 396.64 769.19 396.64 578.1 372.67 479.92 372.67 381.75"/><rect class="cls-19" x="372.67" y="381.75" width="191.07" height="98.18"/><rect class="cls-19" x="396.64" y="578.1" width="191.07" height="191.09"/><polygon class="cls-36" points="587.71 578.1 396.64 578.1 372.67 479.92 563.74 479.92 587.71 578.1"/><polygon class="cls-16" points="399.8 499.42 394.8 499.42 392.89 492.31 397.89 492.31 399.8 499.42"/><polygon class="cls-16" points="411.16 499.42 406.17 499.42 404.26 492.31 409.25 492.31 411.16 499.42"/><polygon class="cls-16" points="422.53 499.42 417.53 499.42 415.62 492.31 420.62 492.31 422.53 499.42"/><polygon class="cls-16" points="433.89 499.42 428.9 499.42 426.99 492.31 431.98 492.31 433.89 499.42"/><polygon class="cls-16" points="445.26 499.42 440.26 499.42 438.35 492.31 443.35 492.31 445.26 499.42"/><polygon class="cls-16" points="456.62 499.42 451.63 499.42 449.71 492.31 454.71 492.31 456.62 499.42"/><polygon class="cls-16" points="403.36 512.71 398.37 512.71 396.46 505.59 401.45 505.59 403.36 512.71"/><polygon class="cls-16" points="414.73 512.71 409.73 512.71 407.82 505.59 412.82 505.59 414.73 512.71"/><polygon class="cls-16" points="426.09 512.71 421.1 512.71 419.19 505.59 424.18 505.59 426.09 512.71"/><polygon class="cls-16" points="437.46 512.71 432.46 512.71 430.55 505.59 435.55 505.59 437.46 512.71"/><polygon class="cls-16" points="448.82 512.71 443.83 512.71 441.92 505.59 446.91 505.59 448.82 512.71"/><polygon class="cls-16" points="460.19 512.71 455.19 512.71 453.28 505.59 458.28 505.59 460.19 512.71"/><polygon class="cls-16" points="407.06 526.46 402.06 526.46 400.15 519.35 405.15 519.35 407.06 526.46"/><polygon class="cls-16" points="418.42 526.46 413.43 526.46 411.52 519.35 416.51 519.35 418.42 526.46"/><polygon class="cls-16" points="429.79 526.46 424.79 526.46 422.88 519.35 427.88 519.35 429.79 526.46"/><polygon class="cls-16" points="441.15 526.46 436.16 526.46 434.25 519.35 439.24 519.35 441.15 526.46"/><polygon class="cls-16" points="452.52 526.46 447.52 526.46 445.61 519.35 450.61 519.35 452.52 526.46"/><polygon class="cls-16" points="463.88 526.46 458.89 526.46 456.98 519.35 461.97 519.35 463.88 526.46"/><polygon class="cls-16" points="410.63 539.74 405.63 539.74 403.72 532.63 408.71 532.63 410.63 539.74"/><polygon class="cls-16" points="421.99 539.74 416.99 539.74 415.08 532.63 420.08 532.63 421.99 539.74"/><polygon class="cls-16" points="433.36 539.74 428.36 539.74 426.45 532.63 431.44 532.63 433.36 539.74"/><polygon class="cls-16" points="444.72 539.74 439.72 539.74 437.81 532.63 442.81 532.63 444.72 539.74"/><polygon class="cls-16" points="456.08 539.74 451.09 539.74 449.18 532.63 454.17 532.63 456.08 539.74"/><polygon class="cls-16" points="467.45 539.74 462.45 539.74 460.54 532.63 465.54 532.63 467.45 539.74"/><polygon class="cls-16" points="478.89 499.42 473.89 499.42 471.98 492.31 476.98 492.31 478.89 499.42"/><polygon class="cls-16" points="490.25 499.42 485.26 499.42 483.35 492.31 488.34 492.31 490.25 499.42"/><polygon class="cls-16" points="501.62 499.42 496.62 499.42 494.71 492.31 499.71 492.31 501.62 499.42"/><polygon class="cls-16" points="512.98 499.42 507.99 499.42 506.08 492.31 511.07 492.31 512.98 499.42"/><polygon class="cls-16" points="524.35 499.42 519.35 499.42 517.44 492.31 522.44 492.31 524.35 499.42"/><polygon class="cls-16" points="535.71 499.42 530.72 499.42 528.81 492.31 533.8 492.31 535.71 499.42"/><polygon class="cls-16" points="482.46 512.71 477.46 512.71 475.55 505.59 480.55 505.59 482.46 512.71"/><polygon class="cls-16" points="493.82 512.71 488.83 512.71 486.92 505.59 491.91 505.59 493.82 512.71"/><polygon class="cls-16" points="505.19 512.71 500.19 512.71 498.28 505.59 503.28 505.59 505.19 512.71"/><polygon class="cls-16" points="516.55 512.71 511.56 512.71 509.64 505.59 514.64 505.59 516.55 512.71"/><polygon class="cls-16" points="527.92 512.71 522.92 512.71 521.01 505.59 526 505.59 527.92 512.71"/><polygon class="cls-16" points="539.28 512.71 534.28 512.71 532.38 505.59 537.37 505.59 539.28 512.71"/><polygon class="cls-16" points="486.15 526.46 481.15 526.46 479.24 519.35 484.24 519.35 486.15 526.46"/><polygon class="cls-16" points="497.52 526.46 492.52 526.46 490.61 519.35 495.61 519.35 497.52 526.46"/><polygon class="cls-16" points="508.88 526.46 503.88 526.46 501.97 519.35 506.97 519.35 508.88 526.46"/><polygon class="cls-16" points="520.25 526.46 515.25 526.46 513.34 519.35 518.34 519.35 520.25 526.46"/><polygon class="cls-16" points="531.61 526.46 526.62 526.46 524.7 519.35 529.7 519.35 531.61 526.46"/><polygon class="cls-16" points="542.98 526.46 537.98 526.46 536.07 519.35 541.06 519.35 542.98 526.46"/><polygon class="cls-16" points="489.72 539.74 484.72 539.74 482.81 532.63 487.81 532.63 489.72 539.74"/><polygon class="cls-16" points="501.08 539.74 496.09 539.74 494.18 532.63 499.17 532.63 501.08 539.74"/><polygon class="cls-16" points="512.45 539.74 507.45 539.74 505.54 532.63 510.54 532.63 512.45 539.74"/><polygon class="cls-16" points="523.81 539.74 518.82 539.74 516.91 532.63 521.9 532.63 523.81 539.74"/><polygon class="cls-16" points="535.18 539.74 530.18 539.74 528.27 532.63 533.27 532.63 535.18 539.74"/><polygon class="cls-16" points="546.54 539.74 541.55 539.74 539.64 532.63 544.63 532.63 546.54 539.74"/><rect class="cls-11" x="387.33" y="413.1" width="70.94" height="57.15"/><rect class="cls-37" x="453.28" y="413.1" width="5.07" height="57.15"/><path class="cls-16" d="M787.83,878.43H616.95V808.16H787.83Zm-169.77-1.12H786.71v-68H618.06Z" transform="translate(-206.88 -128.75)"/><ellipse class="cls-7" cx="499.13" cy="398.16" rx="2.71" ry="3.86"/><ellipse class="cls-13" cx="511.8" cy="398.16" rx="2.71" ry="3.86"/><ellipse class="cls-37" cx="524.46" cy="398.16" rx="2.71" ry="3.86"/><ellipse class="cls-7" cx="537.13" cy="398.16" rx="2.71" ry="3.86"/><ellipse class="cls-13" cx="549.79" cy="398.16" rx="2.71" ry="3.86"/><path class="cls-16" d="M759.94,588.54h-56.1V541.29h56.1Zm-55-1.12h53.87v-45H705Z" transform="translate(-206.88 -128.75)"/><rect class="cls-38" x="406.77" y="419.21" width="8.66" height="1.6"/><rect class="cls-38" x="389.96" y="419.21" width="13.65" height="1.6"/><rect class="cls-38" x="389.96" y="423.48" width="20.65" height="1.6"/><rect class="cls-38" x="413.39" y="423.48" width="13.7" height="1.6"/><rect class="cls-38" x="417.31" y="419.21" width="14.95" height="1.6"/><rect class="cls-38" x="389.96" y="430.84" width="13.65" height="1.6"/><rect class="cls-38" x="389.96" y="435.1" width="20.65" height="1.6"/><rect class="cls-38" x="413.39" y="435.1" width="13.7" height="1.6"/><rect class="cls-38" x="406.77" y="430.84" width="8.66" height="1.6"/><rect class="cls-38" x="417.31" y="430.84" width="14.95" height="1.6"/><rect class="cls-38" x="389.96" y="443.64" width="13.65" height="1.6"/><rect class="cls-38" x="389.96" y="447.91" width="20.65" height="1.6"/><rect class="cls-38" x="413.39" y="447.91" width="13.7" height="1.6"/><rect class="cls-38" x="406.77" y="443.64" width="8.66" height="1.6"/><rect class="cls-38" x="417.31" y="443.64" width="14.95" height="1.6"/><rect class="cls-38" x="389.96" y="455.97" width="13.65" height="1.6"/><rect class="cls-38" x="389.96" y="460.24" width="20.65" height="1.6"/><rect class="cls-38" x="413.39" y="460.24" width="13.7" height="1.6"/><rect class="cls-38" x="406.77" y="455.97" width="8.66" height="1.6"/><rect class="cls-38" x="417.31" y="455.97" width="14.95" height="1.6"/><rect class="cls-19" x="81.2" y="590.03" width="315.45" height="11.23"/><path class="cls-39" d="M360.53,641.65l-6.06,72s-.63,4.37,2.61,4.37c5.34,0,26.57,0,26.57,0s-4-.91-4-3c.06-2.41,7.08-74.11,7.08-74.11Z" transform="translate(-206.88 -128.75)"/><path class="cls-40" d="M385.38,716.73c-1,0-21.33.07-26.53,0-2.27,0-2.66-2-2.68-3.3a6.46,6.46,0,0,1,.07-1.07l.16-1.87.4-4.77.35-4.21.46-5.42.38-4.57,4.3-51.17,26.24-.68s-3,30-5,51.85c-.23,2.43-.46,4.77-.66,6.94l-.19,2c-.19,2.07-.37,4-.53,5.64l-.22,2.46c-.27,2.95-.42,4.83-.43,5.18a3,3,0,0,0,.05.58C381.93,716.65,385,716.73,385.38,716.73Z" transform="translate(-206.88 -128.75)"/><polygon class="cls-41" points="89.93 473.72 104.68 532.97 106.7 541.09 113.57 568.69 241.22 568.69 215.89 473.72 89.93 473.72"/><polygon class="cls-40" points="89.93 473.72 87.89 474.4 110.85 570.75 113.57 568.69 89.93 473.72"/><polygon class="cls-39" points="110.85 570.75 237.71 570.75 241.22 568.69 113.57 568.69 110.85 570.75"/><rect class="cls-41" x="362.28" y="716.76" width="27.47" height="1.31" transform="translate(545.15 1306.07) rotate(180)"/><polygon class="cls-41" points="235.03 551.19 214.32 474.97 89.73 474.97 89.73 473.72 215.89 473.72 236.54 551.02 235.03 551.19"/><polygon class="cls-39" points="175.89 570.75 175.75 571.74 149.91 576.96 150.27 572.75 150.44 570.75 175.89 570.75"/><path class="cls-42" d="M385.38,716.73c-1,0-21.33.07-26.53,0-2.27,0-2.66-2-2.68-3.3l25.71-4.84c-.27,2.95-.42,4.83-.43,5.18a3,3,0,0,0,.05.58C381.93,716.65,385,716.73,385.38,716.73Z" transform="translate(-206.88 -128.75)"/><polygon class="cls-42" points="169.64 549.46 113.57 568.69 106.7 541.09 169.64 549.46"/><polygon class="cls-16" points="89.93 473.72 215.89 473.72 236.33 550.04 108.28 550.04 89.93 473.72"/><polygon class="cls-43" points="230.39 546.73 112.45 546.73 99.09 493.53 98.07 489.45 97.2 485.97 95.15 477.81 211.39 477.81 213.64 485.97 214.6 489.45 215.72 493.53 230.39 546.73"/><polygon class="cls-44" points="200.04 481.53 194.74 481.6 194.62 481.14 199.92 481.06 200.04 481.53"/><polygon class="cls-44" points="198.87 482.8 195.06 482.85 194.94 482.39 198.75 482.34 198.87 482.8"/><polygon class="cls-44" points="203.25 482.74 199.44 482.79 199.32 482.33 203.13 482.27 203.25 482.74"/><polygon class="cls-44" points="206.42 482.69 204.06 482.72 203.94 482.26 206.3 482.23 206.42 482.69"/><polygon class="cls-44" points="204.3 481.47 201.03 481.51 200.91 481.05 204.18 481 204.3 481.47"/><polygon class="cls-44" points="208.77 481.4 205.49 481.45 205.38 480.99 208.65 480.94 208.77 481.4"/><polygon class="cls-44" points="214.19 542 208.88 542.08 208.77 541.62 214.07 541.54 214.19 542"/><polygon class="cls-44" points="213.02 543.27 209.2 543.33 209.09 542.86 212.9 542.81 213.02 543.27"/><polygon class="cls-44" points="217.4 543.21 213.58 543.26 213.47 542.8 217.28 542.75 217.4 543.21"/><polygon class="cls-44" points="220.57 543.16 218.2 543.2 218.09 542.74 220.45 542.7 220.57 543.16"/><polygon class="cls-44" points="218.44 541.94 215.17 541.99 215.05 541.53 218.32 541.48 218.44 541.94"/><polygon class="cls-44" points="222.91 541.88 219.64 541.92 219.52 541.46 222.79 541.42 222.91 541.88"/><polygon class="cls-44" points="117.19 485.04 104.75 485.01 104.51 483.97 116.94 484 117.19 485.04"/><polygon class="cls-44" points="114.36 487.86 105.42 487.84 105.17 486.8 114.11 486.82 114.36 487.86"/><polygon class="cls-44" points="124.63 487.89 115.69 487.87 115.44 486.82 124.38 486.84 124.63 487.89"/><polygon class="cls-44" points="132.06 487.9 126.52 487.89 126.27 486.85 131.81 486.86 132.06 487.9"/><polygon class="cls-44" points="127.16 485.06 119.49 485.05 119.25 484 126.92 484.02 127.16 485.06"/><polygon class="cls-44" points="137.64 485.09 129.97 485.07 129.72 484.03 137.39 484.05 137.64 485.09"/><polygon class="cls-44" points="117.42 494.23 106.92 494.21 106.67 493.16 117.17 493.19 117.42 494.23"/><polygon class="cls-44" points="125.19 494.25 119.33 494.24 119.08 493.19 124.95 493.21 125.19 494.25"/><polygon class="cls-44" points="136.84 494.28 127.85 494.26 127.61 493.21 136.6 493.24 136.84 494.28"/><polygon class="cls-44" points="120 496.98 107.56 496.95 107.32 495.91 119.75 495.94 120 496.98"/><polygon class="cls-44" points="117.17 499.8 108.23 499.78 107.98 498.74 116.92 498.76 117.17 499.8"/><polygon class="cls-44" points="127.44 499.83 118.5 499.81 118.25 498.76 127.19 498.78 127.44 499.83"/><polygon class="cls-44" points="134.87 499.85 129.33 499.83 129.08 498.79 134.62 498.8 134.87 499.85"/><polygon class="cls-44" points="129.97 497 122.3 496.99 122.06 495.94 129.73 495.96 129.97 497"/><polygon class="cls-44" points="140.45 497.03 132.78 497.01 132.53 495.97 140.2 495.99 140.45 497.03"/><polygon class="cls-45" points="120.5 507.3 110 507.28 109.75 506.23 120.25 506.26 120.5 507.3"/><polygon class="cls-45" points="128.27 507.32 122.4 507.31 122.16 506.26 128.02 506.28 128.27 507.32"/><polygon class="cls-45" points="139.92 507.35 130.93 507.33 130.68 506.29 139.68 506.31 139.92 507.35"/><polygon class="cls-45" points="123.07 510.05 110.64 510.02 110.39 508.98 122.83 509.01 123.07 510.05"/><polygon class="cls-45" points="120.25 512.87 111.31 512.85 111.06 511.81 120 511.83 120.25 512.87"/><polygon class="cls-45" points="130.51 512.9 121.58 512.88 121.33 511.83 130.27 511.85 130.51 512.9"/><polygon class="cls-45" points="137.94 512.92 132.4 512.9 132.16 511.86 137.7 511.87 137.94 512.92"/><polygon class="cls-45" points="133.05 510.08 125.38 510.06 125.13 509.01 132.8 509.03 133.05 510.08"/><polygon class="cls-45" points="143.53 510.1 135.85 510.08 135.61 509.04 143.28 509.06 143.53 510.1"/><polygon class="cls-44" points="123.44 519.81 112.94 519.78 112.69 518.74 123.19 518.76 123.44 519.81"/><polygon class="cls-44" points="131.21 519.83 125.35 519.81 125.1 518.77 130.97 518.78 131.21 519.83"/><polygon class="cls-44" points="142.87 519.86 133.87 519.83 133.63 518.79 142.62 518.81 142.87 519.86"/><polygon class="cls-44" points="126.02 522.56 113.58 522.53 113.34 521.48 125.77 521.51 126.02 522.56"/><polygon class="cls-44" points="123.19 525.38 114.25 525.36 114 524.31 122.94 524.33 123.19 525.38"/><polygon class="cls-44" points="133.46 525.4 124.52 525.38 124.27 524.34 133.21 524.36 133.46 525.4"/><polygon class="cls-44" points="140.89 525.42 135.35 525.41 135.1 524.36 140.64 524.38 140.89 525.42"/><polygon class="cls-44" points="135.99 522.58 128.32 522.56 128.08 521.52 135.75 521.54 135.99 522.58"/><polygon class="cls-44" points="146.47 522.61 138.8 522.59 138.55 521.54 146.22 521.56 146.47 522.61"/><polygon class="cls-45" points="126.46 532.65 115.96 532.62 115.72 531.58 126.22 531.61 126.46 532.65"/><polygon class="cls-45" points="134.23 532.67 128.37 532.65 128.12 531.61 133.99 531.63 134.23 532.67"/><polygon class="cls-45" points="145.89 532.7 136.9 532.67 136.65 531.63 145.64 531.65 145.89 532.7"/><polygon class="cls-45" points="129.04 535.4 116.61 535.37 116.36 534.32 128.79 534.36 129.04 535.4"/><polygon class="cls-45" points="126.21 538.22 117.27 538.2 117.03 537.15 125.97 537.18 126.21 538.22"/><polygon class="cls-45" points="136.48 538.25 127.54 538.22 127.3 537.18 136.23 537.2 136.48 538.25"/><polygon class="cls-45" points="143.91 538.26 138.37 538.25 138.12 537.21 143.66 537.22 143.91 538.26"/><polygon class="cls-45" points="139.01 535.42 131.34 535.4 131.1 534.36 138.77 534.38 139.01 535.42"/><polygon class="cls-45" points="149.49 535.45 141.82 535.43 141.58 534.39 149.25 534.4 149.49 535.45"/><polygon class="cls-41" points="171.72 485.91 159.29 485.88 159.04 484.84 171.47 484.87 171.72 485.91"/><polygon class="cls-41" points="168.89 488.73 159.95 488.71 159.71 487.67 168.65 487.69 168.89 488.73"/><polygon class="cls-41" points="179.16 488.76 170.22 488.74 169.98 487.69 178.91 487.71 179.16 488.76"/><polygon class="cls-41" points="186.59 488.78 181.05 488.76 180.8 487.72 186.34 487.73 186.59 488.78"/><polygon class="cls-41" points="181.69 485.94 174.03 485.92 173.78 484.87 181.45 484.89 181.69 485.94"/><polygon class="cls-41" points="192.17 485.96 184.5 485.94 184.26 484.9 191.93 484.92 192.17 485.96"/><polygon class="cls-41" points="171.95 495.1 161.45 495.08 161.21 494.04 171.71 494.06 171.95 495.1"/><polygon class="cls-41" points="179.72 495.12 173.86 495.11 173.61 494.06 179.48 494.08 179.72 495.12"/><polygon class="cls-41" points="191.38 495.15 182.39 495.13 182.14 494.09 191.13 494.11 191.38 495.15"/><polygon class="cls-41" points="174.53 497.85 162.1 497.82 161.85 496.78 174.28 496.81 174.53 497.85"/><polygon class="cls-41" points="171.7 500.67 162.76 500.65 162.52 499.61 171.46 499.63 171.7 500.67"/><polygon class="cls-41" points="181.97 500.7 173.03 500.68 172.79 499.63 181.72 499.66 181.97 500.7"/><polygon class="cls-41" points="189.4 500.72 183.86 500.7 183.62 499.66 189.16 499.67 189.4 500.72"/><polygon class="cls-41" points="184.5 497.88 176.84 497.86 176.59 496.81 184.26 496.83 184.5 497.88"/><polygon class="cls-41" points="194.98 497.9 187.31 497.88 187.07 496.84 194.74 496.86 194.98 497.9"/><polygon class="cls-44" points="175.03 508.18 164.53 508.15 164.28 507.11 174.78 507.13 175.03 508.18"/><polygon class="cls-44" points="182.8 508.19 176.94 508.18 176.69 507.14 182.56 507.15 182.8 508.19"/><polygon class="cls-44" points="194.46 508.22 185.46 508.2 185.22 507.16 194.21 507.18 194.46 508.22"/><polygon class="cls-44" points="177.61 510.92 165.18 510.89 164.93 509.85 177.36 509.88 177.61 510.92"/><polygon class="cls-44" points="174.78 513.75 165.84 513.72 165.59 512.68 174.53 512.7 174.78 513.75"/><polygon class="cls-44" points="185.05 513.77 176.11 513.75 175.86 512.71 184.8 512.73 185.05 513.77"/><polygon class="cls-44" points="192.48 513.79 186.94 513.77 186.69 512.73 192.23 512.75 192.48 513.79"/><polygon class="cls-44" points="187.58 510.95 179.91 510.93 179.67 509.89 187.34 509.9 187.58 510.95"/><polygon class="cls-44" points="198.06 510.97 190.39 510.95 190.14 509.91 197.81 509.93 198.06 510.97"/><polygon class="cls-44" points="177.97 520.68 167.47 520.65 167.23 519.61 177.73 519.64 177.97 520.68"/><polygon class="cls-44" points="185.75 520.7 179.88 520.68 179.63 519.64 185.5 519.65 185.75 520.7"/><polygon class="cls-44" points="197.4 520.73 188.41 520.71 188.16 519.66 197.15 519.68 197.4 520.73"/><polygon class="cls-44" points="180.55 523.43 168.12 523.4 167.87 522.35 180.3 522.38 180.55 523.43"/><polygon class="cls-44" points="177.72 526.25 168.78 526.23 168.54 525.18 177.48 525.21 177.72 526.25"/><polygon class="cls-44" points="187.99 526.27 179.05 526.25 178.81 525.21 187.75 525.23 187.99 526.27"/><polygon class="cls-44" points="195.42 526.29 189.88 526.28 189.63 525.24 195.18 525.25 195.42 526.29"/><polygon class="cls-44" points="190.53 523.45 182.86 523.43 182.61 522.39 190.28 522.41 190.53 523.45"/><polygon class="cls-44" points="201 523.48 193.33 523.46 193.09 522.42 200.76 522.43 201 523.48"/><polygon class="cls-44" points="181 533.52 170.5 533.5 170.25 532.45 180.75 532.48 181 533.52"/><polygon class="cls-44" points="188.77 533.54 182.9 533.53 182.66 532.48 188.52 532.5 188.77 533.54"/><polygon class="cls-44" points="200.42 533.57 191.43 533.55 191.18 532.5 200.18 532.53 200.42 533.57"/><polygon class="cls-44" points="183.57 536.27 171.14 536.24 170.9 535.2 183.33 535.23 183.57 536.27"/><polygon class="cls-44" points="180.75 539.09 171.81 539.07 171.56 538.03 180.5 538.05 180.75 539.09"/><polygon class="cls-44" points="191.01 539.12 182.08 539.1 181.83 538.05 190.77 538.07 191.01 539.12"/><polygon class="cls-44" points="198.44 539.13 192.9 539.12 192.66 538.08 198.2 538.09 198.44 539.13"/><polygon class="cls-44" points="193.55 536.29 185.88 536.28 185.63 535.23 193.3 535.25 193.55 536.29"/><polygon class="cls-44" points="204.03 536.32 196.35 536.3 196.11 535.26 203.78 535.28 204.03 536.32"/><path class="cls-46" d="M445.29,880.89s-1.14,17.71-4.56,18c-.46,0-17.38,0-17.38,0l-21.61-.17s.15-5.21,6.47-6.29,16.9-5.5,20.74-13.84C433,869.76,445.29,880.89,445.29,880.89Z" transform="translate(-206.88 -128.75)"/><path class="cls-45" d="M507.14,735.21c.83.69,22.83,24.54,21,42.85a10.56,10.56,0,0,1-10.57,9.42H490.8s-27.35,4.89-28,10.8-6.25,37.77-17.34,83.05c0,0-8.17,2.81-13.13.8-6.56-2.66-7.51-5.48-7.51-5.48s6.61-101.39,11.83-108.52,59-28.35,76.4-30.46S507.14,735.21,507.14,735.21Z" transform="translate(-206.88 -128.75)"/><path class="cls-15" d="M351.68,709.92s-15.55-3.62-19.53,0a19.61,19.61,0,0,0-5.24,8.86h24.78Z" transform="translate(-206.88 -128.75)"/><path class="cls-45" d="M407.42,880.89s-1.14,17.71-4.56,18c-.46,0-17.38,0-17.38,0l-21.61-.17s.15-5.21,6.47-6.29,16.9-5.5,20.74-13.84C395.13,869.76,407.42,880.89,407.42,880.89Z" transform="translate(-206.88 -128.75)"/><path class="cls-11" d="M527.47,735.21c.63.53,5.39,13.34,8.57,27.9a20.08,20.08,0,0,1-19.61,24.38H454.07s-27.35,4.89-28,10.8-6.25,37.77-17.34,83.05c0,0-8.2,2.15-14.61-.58A18.09,18.09,0,0,1,388,875.8s6.67-100.53,11.89-107.66,59-28.35,76.4-30.46S527.47,735.21,527.47,735.21Z" transform="translate(-206.88 -128.75)"/><path class="cls-15" d="M492.9,644.57l-9.64,9.26H466.83c0-1.32,0-6.83.09-11.82,0-.29,0-.59,0-.88,0-1.11,0-2.18,0-3.15,0-2.75.06-4.74.06-4.74l4.22-2.89,9.38-6.43,5.07-3.47c0,.09.42,4.62.48,5.28C487.32,637.48,492.9,644.57,492.9,644.57Z" transform="translate(-206.88 -128.75)"/><path class="cls-45" d="M469,642.89c.31-.13,18.09-8.11,20.17-7.42s4.67,7,4.67,7l-31.3,7.08S465,644.58,469,642.89Z" transform="translate(-206.88 -128.75)"/><path class="cls-9" d="M545.91,696.17c-3.39-20.89-17.69-36.52-23.81-42.38-4.11-6.18-28.25-11.28-28.25-11.28l-31.3,7.08S444.91,651.5,435,668c-6.15,10.18-23.78,33.46-35.35,34.18s-47.92,7.78-47.92,7.78v8.94l55.42,1.52a9.41,9.41,0,0,0,2-.16c4.77-.9,25.21-5,35.38-10.25,1.62,26.18,3.54,66.15,12.68,72.5,9.67,6.71,77.68,7.61,84.88-2.62,3.69-5.24-.83-36.25-6.48-66.15C542.59,710.36,547.33,704.93,545.91,696.17Z" transform="translate(-206.88 -128.75)"/><path class="cls-47" d="M483.09,629.39l-.84.52S474.52,635.48,467,638c0-2.75.06-4.74.06-4.74l4.22-2.89Z" transform="translate(-206.88 -128.75)"/><path class="cls-15" d="M461.28,633.37s25.28,3,26.9-12.78,6-26-10.1-28.59-19.83,3.12-21.65,8.25S454.74,632.19,461.28,633.37Z" transform="translate(-206.88 -128.75)"/><path class="cls-45" d="M457.1,598.64s4.77,17.11,8.23,15.68,6.61-2.6,7.07,2.75-3.41,12.33,7.85,11.19S502.1,595.55,498,590.7C486.34,576.72,440.84,582,457.1,598.64Z" transform="translate(-206.88 -128.75)"/><path class="cls-48" d="M453.38,776.68H572.85a0,0,0,0,1,0,0v14.19a0,0,0,0,1,0,0H439.19a0,0,0,0,1,0,0v0A14.19,14.19,0,0,1,453.38,776.68Z" transform="translate(805.16 1438.8) rotate(-180)"/><rect class="cls-49" x="417.85" y="776.68" width="107.33" height="14.19" rx="7.1" ry="7.1" transform="translate(736.14 1438.8) rotate(180)"/><polygon class="cls-11" points="296.09 764.77 304.16 764.77 306.42 662.12 294.1 662.12 296.09 764.77"/><polygon class="cls-11" points="261.03 764.77 339.48 764.77 339.48 757.68 299.5 754.08 261.03 757.68 261.03 764.77"/><circle class="cls-11" cx="340.65" cy="763.66" r="6.45"/><circle class="cls-11" cx="262.2" cy="763.66" r="6.45"/><path class="cls-11" d="M470.72,797.61h72.83a6.73,6.73,0,0,0,6.73-6.73H464A6.73,6.73,0,0,0,470.72,797.61Z" transform="translate(-206.88 -128.75)"/><path class="cls-49" d="M560.49,790.87a6.14,6.14,0,0,0,6.14-6.14V690.21c0-17.71-11.58-32.07-25.86-32.07H482.28c-14.28,0-25.86,14.36-25.86,32.07V790.87Z" transform="translate(-206.88 -128.75)"/><path class="cls-50" d="M561.65,790.87a11.2,11.2,0,0,0,11.2-11.2V690.21c0-17.71-11.58-32.07-25.86-32.07H488.49c-14.28,0-25.86,14.36-25.86,32.07V790.87Z" transform="translate(-206.88 -128.75)"/><rect class="cls-51" x="1672.85" y="829.82" width="82.55" height="68.07" transform="translate(3221.38 1598.95) rotate(180)"/><rect class="cls-16" x="1714.13" y="829.82" width="82.55" height="68.07" transform="translate(3303.92 1598.95) rotate(180)"/><polygon class="cls-52" points="1466.02 751.87 1479.1 751.87 1477.95 748.19 1479.1 745.56 1466.02 745.56 1466.02 751.87"/><polygon class="cls-51" points="1507.25 722.13 1520.33 722.13 1519.18 718.45 1520.33 715.82 1507.25 715.82 1507.25 722.13"/><polygon class="cls-52" points="1507.25 715.82 1494.17 715.82 1495.32 719.5 1494.17 722.13 1507.25 722.13 1507.25 715.82"/><polygon class="cls-51" points="1589.8 752.6 1576.72 752.6 1577.87 756.28 1576.72 758.91 1589.8 758.91 1589.8 752.6"/><rect class="cls-7" x="1560.64" y="705.68" width="23.75" height="9.24"/><rect class="cls-51" x="1560.99" y="829.75" width="82.71" height="68.2" transform="translate(2997.82 1598.95) rotate(180)"/><rect class="cls-4" x="1602.35" y="829.75" width="82.71" height="68.2" transform="translate(3080.53 1598.95) rotate(180)"/><polygon class="cls-9" points="1354.16 751.9 1367.27 751.9 1366.11 748.22 1367.27 745.58 1354.16 745.58 1354.16 751.9"/><polygon class="cls-10" points="1395.47 722.11 1408.58 722.11 1407.42 718.42 1408.58 715.78 1395.47 715.78 1395.47 722.11"/><polygon class="cls-9" points="1395.47 715.78 1382.36 715.78 1383.52 719.47 1382.36 722.11 1395.47 722.11 1395.47 715.78"/><polygon class="cls-10" points="1478.19 752.64 1465.08 752.64 1466.23 756.33 1465.08 758.96 1478.19 758.96 1478.19 752.64"/><rect class="cls-7" x="1448.97" y="705.62" width="23.8" height="9.26"/><rect class="cls-12" x="1603.85" y="765.87" width="77.55" height="63.95" transform="translate(3078.38 1466.93) rotate(180)"/><rect class="cls-13" x="1642.63" y="765.87" width="77.55" height="63.95" transform="translate(3155.93 1466.93) rotate(180)"/><polygon class="cls-14" points="1397.02 684.85 1409.31 684.85 1408.22 681.39 1409.31 678.92 1397.02 678.92 1397.02 684.85"/><polygon class="cls-15" points="1435.75 656.91 1448.04 656.91 1446.96 653.45 1448.04 650.98 1435.75 650.98 1435.75 656.91"/><polygon class="cls-14" points="1435.75 650.98 1423.46 650.98 1424.54 654.44 1423.46 656.91 1435.75 656.91 1435.75 650.98"/><polygon class="cls-15" points="1513.3 685.53 1501.01 685.53 1502.1 688.99 1501.01 691.46 1513.3 691.46 1513.3 685.53"/><rect class="cls-7" x="1485.91" y="641.45" width="22.32" height="8.68"/><rect class="cls-16" x="463.88" y="431.04" width="3.45" height="3.45"/><rect class="cls-16" x="472.83" y="431.04" width="3.45" height="3.45"/><rect class="cls-16" x="481.78" y="431.04" width="3.45" height="3.45"/><rect class="cls-16" x="463.88" y="438.72" width="3.45" height="3.45"/><rect class="cls-16" x="472.83" y="438.72" width="3.45" height="3.45"/><rect class="cls-16" x="481.78" y="438.72" width="3.45" height="3.45"/><rect class="cls-16" x="463.88" y="447.23" width="3.45" height="3.45"/><rect class="cls-16" x="472.83" y="447.23" width="3.45" height="3.45"/><rect class="cls-16" x="481.78" y="447.23" width="3.45" height="3.45"/><path class="cls-34" d="M706.67,654.22l5.58-.83c.62-.09.88-.73.63-1.5l-5.43-16.54a2.32,2.32,0,0,0-2.13-1.67l-5.58.83c-.62.09-.88.73-.63,1.5l5.43,16.54A2.32,2.32,0,0,0,706.67,654.22Z" transform="translate(-206.88 -128.75)"/><path class="cls-35" d="M708.65,653.93l5.58-.83c.62-.09.88-.73.63-1.5l-5.43-16.54a2.32,2.32,0,0,0-2.13-1.68l-5.58.83c-.62.09-.88.73-.63,1.5l5.43,16.54A2.32,2.32,0,0,0,708.65,653.93Z" transform="translate(-206.88 -128.75)"/><path class="cls-35" d="M703.26,637.23h0c.16,0,.24-.21.18-.42L699,622.18a.43.43,0,0,0-.41-.34h0c-.16,0-.24.21-.18.42l4.41,14.63A.43.43,0,0,0,703.26,637.23Z" transform="translate(-206.88 -128.75)"/><path class="cls-15" d="M701.78,581.69s-4-6.86-7.23-9.4-11.65-3.25-12-2.6c-1,2,3.35,4.91,4.26,6.76s.52,4.51,4.82,6.68,7,3.72,7,3.72Z" transform="translate(-206.88 -128.75)"/><path class="cls-34" d="M698.38,580.76c2.07-3.22,2.69-3.39,2.69-3.39s34.27,13.67,37.54,14.81,52.17,4,52.17,4l14.76,32.43s-65.16-14.86-73.39-17.92c-13.6-5-35.42-24.82-35.42-24.82A10.68,10.68,0,0,1,698.38,580.76Z" transform="translate(-206.88 -128.75)"/><path class="cls-45" d="M783.52,884s-.75,12-3,14.86H746.16c.22-1.2,1.19-4.16,5.49-4.91,5.43-.94,14.52-4.76,17.81-11.94C772.92,874.47,783.52,884,783.52,884Z" transform="translate(-206.88 -128.75)"/><path class="cls-45" d="M844.52,882.33s2.14,15.63-.8,15.9c-.39,0-13.07,0-18,0-6.18,0-16.05,0-16.05,0a1.62,1.62,0,0,1-1.46-2.43,6.52,6.52,0,0,1,4.67-3c5.41-1,14.44-5,17.6-12.25C833.76,873,844.52,882.33,844.52,882.33Z" transform="translate(-206.88 -128.75)"/><path class="cls-12" d="M767.35,723.91s8.64,30.25,33.42,82.77,26.68,76.46,26.68,76.46l17.06-.8s-1.6-62.52-13.31-89-14.09-99-14.09-99Z" transform="translate(-206.88 -128.75)"/><path class="cls-13" d="M753.48,697.89a754.32,754.32,0,0,0,7.41,104.34c8.1,57.5,5.36,81.91,5.36,81.91l19.41.65s11.6-57.52,8.27-86.31,15.88-98.76,15.88-98.76Z" transform="translate(-206.88 -128.75)"/><path class="cls-15" d="M791.77,588.29l-9.15,6.78-13.23-2.78c.18-1.21,1.06-6.21,1.85-10.73l.14-.8,1.27-7.16L785,567.43l4.61-2.3c0,.08-.36,4.28-.41,4.89A39.56,39.56,0,0,0,791.77,588.29Z" transform="translate(-206.88 -128.75)"/><path class="cls-45" d="M770.31,584.87c.29-.12,18-5.35,19.92-4.71s3.06,4.36,3.06,4.36L766,592.3S766.61,586.43,770.31,584.87Z" transform="translate(-206.88 -128.75)"/><path class="cls-9" d="M818,703.67c-3,13.69-65.57-29.27-64.73-37.62l.28-2.76c1.15-11.63,2.26-23,2.34-30.44a104.73,104.73,0,0,1,2.13-19c1.09-5.53,2.42-10.54,3.58-14.45A16,16,0,0,1,771,589.12a14,14,0,0,1,1.55-.54c7.54-2.19,18-4.89,20.79-4.07,7.66,2.25,13.35,15.73,17.37,32.91C818.2,649.59,819.95,694.75,818,703.67Z" transform="translate(-206.88 -128.75)"/><path class="cls-53" d="M788.28,570.22c-2.71,5.19-12.82,9.68-17,11.33l.14-.8,1.27-7.16L785,567.43C787.74,567.39,789.4,568.08,788.28,570.22Z" transform="translate(-206.88 -128.75)"/><path class="cls-15" d="M766.65,572.87s22.29,7,26.41-7,9.77-22.44-4.29-27.47-18.41-.53-20.91,3.79S761,570.7,766.65,572.87Z" transform="translate(-206.88 -128.75)"/><path class="cls-45" d="M768.72,540.85s1.42,16.23,4.78,15.53,6.4-1.23,5.91,3.67-5.15,10.54,5.2,11.41,25.22-25.81,22.37-30.86C798.78,526,756.87,523.07,768.72,540.85Z" transform="translate(-206.88 -128.75)"/><path class="cls-34" d="M755.14,697.89c6.2,2.24-.11-6.16,0-7.91.48-7.7-2.54-17.43-1.61-26.69l37.85-22.62S800.36,697.53,755.14,697.89Z" transform="translate(-206.88 -128.75)"/><path class="cls-13" d="M818,703.67C801.83,733.61,799.26,745,799.26,745c-14.06-1.6-38.16-29.25-45.8-36.63,0,0-1-34-.21-42.37l11.68-.34s21.11,5.35,26.58-1.91,3.1-42.9,3.1-42.9l16-3.47C818.2,649.59,822.33,695.63,818,703.67Z" transform="translate(-206.88 -128.75)"/><path class="cls-15" d="M725.81,646.39s-4.61-.9-5.82-1.89c-1.78-1.46-3.17-3.9-4-4.17-1.46-.45-5-5-5.34-5.27-.12-.12-1.08.34-.85,1.09s.77,2.36,1,2.94c.85,2.56.81,3.35-2.25,2.35-.39-.13-7.47-2.37-8.19-.77s2.2,9.32,5.89,11,12.79.16,13.45.35C725.2,653.63,725.81,646.39,725.81,646.39Z" transform="translate(-206.88 -128.75)"/><path class="cls-9" d="M722.05,644.89s37.54,6.38,40.86,4.76c5.31-2.58-2.06-40.67-2.06-40.67s-.32-8.63,9.77-10.67c8.76-1.77,17.21,4.79,17.21,4.79s7.69,6.88,6.71,14.51c-2.18,16.91-5.56,51.31-16.88,56.58-14.59,6.8-56.81-18.86-56.81-18.86a7.38,7.38,0,0,1-1.21-4.92A11.46,11.46,0,0,1,722.05,644.89Z" transform="translate(-206.88 -128.75)"/><path class="cls-13" d="M797.73,620.23l-3.11.67S788,592.44,766,592.3a15.8,15.8,0,0,1,5-3.18C779,591.29,793.1,598.21,797.73,620.23Z" transform="translate(-206.88 -128.75)"/><path class="cls-15" d="M689.45,578s-6.09-3.73-6.37-2.13c-.14.8,2.56,3,3.65,3.91s3.86,2.76,3.86,2.76Z" transform="translate(-206.88 -128.75)"/><rect class="cls-54" y="769.19" width="1640.34" height="6.05" rx="3.03" ry="3.03"/></svg>